<?xml version="1.0" standalone="no"?>
<!DOCTYPE svg PUBLIC "-//W3C//DTD SVG 20010904//EN"
 "http://www.w3.org/TR/2001/REC-SVG-20010904/DTD/svg10.dtd">
<svg version="1.0" xmlns="http://www.w3.org/2000/svg"
 width="789.000000pt" height="722.000000pt" viewBox="0 0 789.000000 722.000000"
 preserveAspectRatio="xMidYMid meet">

<g transform="translate(0.000000,722.000000) scale(0.100000,-0.100000)"
fill="#000000" stroke="none">
<path d="M1700 7201 c-5 -11 -24 -23 -42 -27 -32 -7 -32 -8 -8 -14 14 -3 44
-2 66 3 41 10 94 3 94 -11 0 -8 -71 -32 -95 -32 -8 0 -15 -7 -15 -15 0 -36
-70 -76 -82 -46 -5 13 -70 1 -65 -13 2 -6 11 -10 21 -8 21 4 21 -17 0 -25 -13
-5 -13 -7 -2 -14 9 -6 10 -11 2 -16 -6 -5 -13 -15 -17 -25 -3 -9 -19 -19 -35
-23 -17 -3 -33 -14 -37 -23 -6 -15 -8 -14 -16 6 -7 19 -15 23 -41 20 -34 -3
-55 -38 -24 -38 9 0 16 4 16 9 0 5 8 8 18 6 10 -1 16 -9 14 -20 -2 -9 5 -23
15 -31 17 -12 16 -13 -10 -14 -16 0 -26 4 -22 10 4 6 -5 10 -20 10 -14 0 -24
-4 -21 -9 3 -4 -6 -13 -20 -20 -33 -15 -34 -14 -34 8 0 11 -4 23 -10 26 -6 3
-10 -5 -10 -18 0 -14 -7 -27 -15 -31 -8 -3 -15 -14 -15 -25 0 -14 -8 -21 -27
-23 -20 -2 -29 -9 -31 -25 -3 -20 0 -21 34 -16 28 5 36 3 32 -7 -5 -16 -24
-27 -61 -35 -15 -3 -25 -10 -22 -15 4 -6 10 -8 15 -5 5 3 11 1 14 -4 3 -5 -2
-12 -11 -15 -15 -6 -15 -8 2 -20 12 -9 15 -19 11 -34 -8 -23 -36 -31 -36 -10
0 7 -7 2 -16 -10 -21 -31 -12 -51 20 -45 20 4 26 1 26 -12 0 -13 -6 -16 -25
-11 -18 5 -27 1 -35 -14 -6 -11 -20 -20 -30 -20 -25 0 -28 -45 -5 -76 8 -12
11 -24 8 -28 -11 -11 -21 -6 -25 12 -2 12 -10 4 -23 -25 -15 -32 -24 -41 -37
-37 -10 3 -18 1 -18 -5 0 -6 -12 -17 -26 -24 -17 -9 -23 -17 -15 -21 26 -17
10 -31 -30 -28 l-42 4 7 -32 c4 -23 2 -38 -8 -49 -8 -9 -14 -18 -14 -21 1 -16
-38 -80 -49 -80 -11 0 -19 -28 -14 -54 1 -4 -3 -14 -9 -20 -5 -7 -7 -16 -3
-20 4 -4 -3 -9 -15 -13 -21 -5 -27 -23 -23 -67 1 -15 -2 -16 -13 -7 -19 16
-28 -20 -11 -52 11 -21 10 -26 -6 -35 -10 -7 -38 -12 -61 -12 -42 -1 -43 -1
-18 -15 14 -8 34 -14 45 -15 11 0 49 -18 84 -39 47 -29 72 -53 92 -88 54 -94
71 -219 47 -343 -19 -104 -48 -214 -58 -224 -6 -6 -10 -17 -10 -26 0 -9 -16
-53 -36 -99 -19 -45 -34 -90 -32 -99 2 -9 -4 -24 -13 -32 -21 -20 -53 -114
-45 -135 3 -8 1 -15 -3 -15 -9 0 -36 -96 -33 -115 1 -5 3 -28 5 -50 2 -22 7
-47 12 -54 5 -10 4 -12 -3 -7 -16 10 -15 -6 0 -24 11 -12 10 -12 -4 -1 -18 13
-24 6 -19 -21 0 -5 -5 -8 -11 -8 -7 -1 -2 -7 11 -14 15 -8 20 -16 12 -20 -6
-4 -11 -2 -11 3 0 6 -5 11 -11 11 -5 0 -7 -4 -4 -10 3 -5 0 -10 -7 -10 -9 0
-9 -3 2 -10 8 -5 11 -10 7 -10 -4 0 -3 -9 3 -19 6 -12 6 -22 1 -25 -5 -3 -8
-14 -6 -24 1 -9 0 -11 -2 -3 -4 12 -6 12 -14 0 -6 -10 -8 -8 -6 8 0 12 4 20 7
18 3 -2 6 5 7 15 1 11 -3 23 -9 26 -7 5 -9 1 -5 -9 3 -10 3 -17 -2 -17 -10 0
-13 -29 -14 -112 0 -32 -4 -55 -9 -52 -4 3 -6 9 -3 14 3 5 0 12 -6 16 -7 4 -9
3 -5 -4 3 -6 2 -13 -4 -17 -5 -3 -10 2 -11 12 0 11 -3 13 -6 5 -2 -6 -8 -10
-12 -7 -11 6 -5 -39 8 -62 13 -23 14 -8 1 18 -8 14 -7 19 3 19 14 0 19 -23 11
-49 -3 -10 -7 -11 -18 -2 -12 10 -14 8 -9 -11 3 -16 2 -19 -5 -10 -7 11 -10 9
-15 -7 -3 -12 -1 -19 3 -16 5 3 12 0 16 -6 4 -7 3 -9 -2 -6 -6 3 -16 2 -24 -3
-9 -5 -20 -4 -29 3 -9 7 -12 7 -8 1 3 -6 -9 -27 -28 -47 -35 -37 -45 -54 -23
-41 7 5 8 3 4 -5 -5 -7 -14 -10 -22 -7 -7 3 -16 0 -20 -6 -4 -7 -3 -8 4 -4 7
4 12 3 12 -3 0 -5 -5 -13 -11 -16 -6 -4 -8 -14 -5 -22 3 -8 2 -12 -3 -9 -4 3
-9 -7 -9 -22 -3 -65 -9 -103 -20 -114 -7 -7 -12 -21 -12 -33 0 -11 -12 -36
-28 -55 -15 -19 -34 -47 -41 -62 -8 -16 -18 -28 -23 -28 -5 0 -7 4 -4 9 4 5
-4 7 -16 3 -17 -4 -20 -2 -15 11 7 17 -8 24 -17 8 -3 -4 -31 -16 -63 -24 l-58
-17 -42 -92 c-25 -56 -47 -127 -56 -178 -8 -47 -24 -108 -35 -137 -18 -46 -20
-79 -21 -278 l-2 -225 24 0 c14 0 44 7 67 15 74 26 87 21 162 -55 38 -39 74
-68 79 -64 5 3 6 11 2 17 -4 6 -8 18 -9 27 0 8 -5 32 -9 53 -4 23 -3 37 3 37
5 0 15 -30 22 -66 8 -44 16 -61 21 -52 6 9 9 6 9 -10 0 -15 7 -26 20 -29 11
-3 17 -9 14 -14 -3 -5 -10 -7 -15 -4 -5 3 -6 -1 -2 -10 4 -12 8 -13 13 -5 6 9
9 9 14 1 10 -16 26 -3 26 21 0 16 11 6 40 -36 22 -31 40 -60 40 -65 0 -4 9
-16 20 -26 11 -10 20 -25 20 -34 1 -9 7 -2 15 14 l15 30 -5 -30 c-3 -16 0 -37
5 -45 8 -11 9 -7 4 15 -4 24 -3 27 6 15 9 -12 10 -10 4 10 -3 14 -10 30 -15
36 -5 6 -3 16 4 24 10 10 9 11 -3 5 -12 -6 -13 -5 -3 5 10 11 15 11 29 -1 15
-12 17 -12 9 0 -5 10 -4 12 3 7 7 -4 12 -15 12 -24 0 -15 2 -15 10 -2 8 12 10
12 11 -5 0 -11 3 -14 6 -7 3 8 11 5 24 -10 10 -13 18 -19 19 -14 0 4 12 1 26
-9 18 -11 24 -13 19 -4 -5 8 1 6 12 -4 22 -19 39 -12 21 10 -9 11 -7 15 12 20
22 6 23 7 4 14 -18 7 -18 8 2 8 11 1 24 -3 30 -9 6 -6 10 7 10 39 0 27 -5 49
-10 48 -5 -1 -19 16 -31 38 -22 39 -23 61 -4 49 5 -3 7 -10 4 -15 -4 -5 2 -9
12 -9 15 0 16 -2 3 -10 -8 -5 -10 -10 -5 -10 6 0 26 -15 45 -33 33 -30 79 -50
66 -28 -4 5 -2 12 4 16 5 3 10 1 10 -6 0 -7 3 -9 6 -6 4 4 1 13 -5 21 -7 8 -9
21 -5 27 4 7 1 17 -7 23 -8 6 -29 28 -47 50 -38 44 -39 42 13 181 90 244 109
301 107 312 -1 6 2 14 7 18 6 3 8 19 5 35 -5 22 -1 31 14 41 17 11 19 16 9 28
-10 12 -9 13 1 7 10 -6 12 0 6 28 -5 28 -2 41 11 56 13 15 14 22 5 37 -10 16
-10 16 -5 -4 3 -12 2 -24 -3 -27 -15 -9 -12 55 4 79 9 14 11 26 5 29 -5 4 -11
1 -14 -6 -2 -7 -2 -2 1 12 8 39 4 61 -12 79 -22 24 -20 37 2 20 15 -13 16 -12
3 3 -15 20 -35 14 -27 -8 3 -7 0 -16 -7 -20 -7 -4 -9 -4 -5 1 4 4 3 17 -3 28
-8 15 -8 18 1 12 9 -5 10 -1 5 16 -7 21 -6 22 9 10 9 -8 16 -9 16 -3 0 6 -4
13 -9 16 -10 7 -2 56 11 73 6 7 8 18 5 25 -2 7 0 24 6 38 15 35 17 260 3 260
-6 0 -3 5 7 11 17 10 17 12 1 23 -23 18 -5 28 51 28 40 1 47 5 70 40 17 26 36
41 55 45 21 4 30 11 30 25 0 11 -4 16 -11 12 -14 -9 10 38 25 48 8 6 8 8 0 8
-6 0 -11 7 -11 15 0 8 4 12 9 9 4 -3 8 5 8 16 0 17 4 21 18 16 14 -5 14 -4 -2
9 -19 14 -18 15 12 15 18 0 32 5 32 11 0 5 5 7 12 3 7 -4 8 -3 4 5 -4 6 -12 9
-17 6 -5 -4 -9 -1 -9 5 0 6 7 13 16 17 11 4 14 15 11 41 -12 82 20 133 62 99
12 -10 13 -9 6 3 -6 12 -5 13 6 2 11 -10 11 -16 1 -32 -7 -12 -8 -21 -2 -25 6
-4 7 -12 4 -18 -4 -7 5 -1 21 13 16 14 25 20 22 14 -3 -6 0 -11 7 -11 8 0 12
7 8 15 -4 11 -1 13 8 7 8 -5 11 -4 7 3 -9 14 3 43 14 36 5 -3 9 5 9 18 1 23 1
23 16 3 16 -20 16 -20 9 3 -4 13 -2 22 4 22 6 0 10 6 9 13 -2 7 6 11 17 10 19
-1 19 -1 2 12 -16 11 -16 14 -2 28 8 9 15 26 15 39 0 17 3 19 9 9 9 -14 27 67
22 102 -1 10 5 17 16 18 10 0 13 3 6 5 -7 3 -3 20 14 51 15 25 27 55 29 67 5
36 15 79 20 87 2 4 7 31 9 60 3 29 12 60 19 69 8 8 16 24 19 35 4 19 5 18 6
-2 0 -12 6 -25 11 -28 6 -4 10 -3 8 2 -4 16 26 98 39 110 8 6 14 22 13 35 -4
44 0 69 10 63 6 -3 10 4 11 17 2 90 0 130 -10 142 -9 10 -9 16 -1 21 8 5 7 12
-3 23 -18 21 -28 62 -16 62 5 0 9 5 9 10 0 6 -7 10 -15 10 -8 0 -15 -6 -15
-12 0 -9 -2 -10 -8 -2 -4 7 -16 14 -27 17 -11 2 1 5 28 6 26 0 107 -12 180
-28 113 -26 246 -54 310 -66 13 -3 17 3 17 26 0 26 2 29 19 19 14 -7 19 -18
16 -39 -2 -16 0 -42 4 -58 4 -15 4 -46 -1 -68 -28 -125 -39 -430 -25 -700 0
-11 0 -58 -1 -104 -2 -81 -3 -83 -20 -68 -38 35 -64 18 -82 -53 -11 -44 -12
-45 -52 -45 -54 0 -57 -21 -11 -82 33 -43 35 -49 28 -97 -3 -28 -16 -84 -27
-126 -26 -94 -30 -150 -12 -150 8 0 13 9 12 23 -2 22 49 241 62 265 5 11 11
10 25 -5 17 -16 18 -16 12 0 -3 9 -2 17 3 17 5 0 13 12 16 26 5 19 9 22 15 12
6 -9 9 -2 9 20 0 23 -8 40 -26 55 -22 20 -25 27 -19 60 9 44 17 46 42 11 l19
-26 17 43 c16 44 42 183 58 313 4 38 11 76 15 85 3 9 7 46 9 82 2 42 9 76 20
93 9 14 15 32 12 39 -3 7 2 22 10 32 14 20 15 20 11 0 -2 -12 2 -19 10 -17 6
1 11 -4 10 -10 -2 -7 2 -12 8 -11 7 1 10 -12 9 -33 -1 -19 2 -37 7 -40 5 -3 5
-10 2 -16 -4 -5 4 -4 17 2 13 7 21 9 17 5 -4 -5 -2 -15 5 -23 7 -10 8 -13 1
-9 -14 8 -23 -37 -14 -73 3 -14 0 -36 -7 -50 -15 -29 -17 -50 -5 -50 5 0 15
-26 23 -57 17 -72 17 -79 1 -75 -6 1 -12 -3 -12 -10 0 -6 -18 -27 -39 -47 -22
-20 -42 -47 -46 -60 -6 -21 -5 -23 14 -18 11 3 21 1 21 -4 0 -5 -4 -9 -10 -9
-5 0 -10 -4 -10 -10 0 -17 21 -11 41 13 22 26 26 10 4 -19 -20 -26 -19 -29 12
-31 16 -1 21 2 13 7 -7 4 9 5 36 3 27 -3 51 -8 54 -10 8 -7 -24 -23 -47 -23
-13 0 -23 -5 -23 -10 0 -6 3 -9 8 -8 15 4 72 -14 72 -23 0 -5 4 -9 9 -9 5 0
22 -5 38 -12 l28 -12 -40 -7 c-28 -5 -17 -7 40 -5 101 4 352 -11 428 -25 35
-6 63 -7 70 -1 7 5 46 6 92 1 89 -8 277 -10 258 -2 -7 2 -13 9 -13 14 0 6 -9
22 -20 37 -11 15 -21 37 -23 50 -4 26 -61 83 -107 107 -19 10 -28 20 -23 28 4
7 0 6 -10 -2 -15 -12 -17 -12 -12 1 8 20 -21 31 -45 18 -18 -10 -67 1 -80 18
-3 4 -14 12 -25 18 -11 6 -25 21 -31 33 -6 12 -14 22 -18 22 -19 -2 -27 0 -23
7 3 4 6 27 8 52 1 25 7 51 12 58 6 7 6 12 1 11 -19 -3 -34 1 -34 12 0 7 11 8
30 4 17 -4 30 -2 30 3 0 6 -18 12 -40 14 -34 3 -39 1 -34 -14 4 -12 0 -16 -15
-15 -11 1 -23 7 -25 14 -7 17 21 30 62 31 18 0 41 7 50 14 13 11 14 11 7 -1
-6 -11 -5 -12 6 -5 8 5 16 9 19 10 3 0 16 4 30 8 43 12 84 13 99 2 11 -8 13
-8 8 0 -4 8 4 12 26 13 55 1 67 4 67 14 0 6 3 7 7 4 3 -4 13 -1 21 6 13 10 15
9 8 -3 -4 -8 0 -6 8 4 11 14 16 16 16 6 0 -9 6 -6 16 8 18 26 29 27 67 7 27
-14 57 -11 57 6 0 11 33 -1 42 -15 6 -8 8 -8 8 0 0 6 20 24 45 40 25 15 45 32
45 37 0 5 7 4 15 -3 8 -7 15 -9 15 -5 0 4 11 0 25 -9 23 -15 26 -15 31 -1 4
10 13 13 25 10 13 -4 19 -1 19 9 0 10 6 13 18 9 15 -6 15 -5 4 10 -12 14 -11
16 8 12 18 -4 20 -2 9 11 -10 12 -9 13 3 9 12 -5 14 -1 11 17 -4 21 -1 23 46
24 47 0 49 -1 39 -20 l-11 -21 23 20 c13 11 20 15 17 8 -4 -6 -2 -15 4 -19 7
-4 10 -3 6 2 -3 5 2 18 10 29 15 20 15 20 9 -2 -4 -12 -2 -24 5 -29 7 -4 9 -3
5 4 -3 6 -2 13 3 16 5 4 8 -2 7 -11 -2 -10 -8 -18 -15 -18 -16 0 -42 -53 -30
-61 5 -3 7 -9 5 -13 -3 -4 0 -13 6 -21 8 -12 9 -12 4 2 -7 22 10 33 18 12 9
-23 28 -5 22 21 -5 19 -3 22 14 18 11 -3 20 -10 20 -15 0 -5 -6 -6 -12 -2 -10
6 -10 4 0 -7 6 -7 12 -23 12 -35 0 -24 9 -33 39 -39 15 -3 18 1 14 12 -4 11
-2 14 8 11 8 -3 13 -11 11 -18 -3 -11 0 -11 12 0 19 15 21 24 4 14 -7 -4 -8
-3 -4 5 6 9 11 9 22 0 7 -6 34 -11 58 -12 25 0 43 -4 41 -8 -3 -4 2 -12 10
-19 12 -10 16 -8 24 11 5 13 10 19 10 13 1 -6 8 -11 16 -11 8 0 12 4 10 8 -6
9 52 18 98 14 20 -1 37 0 37 4 0 4 14 8 31 9 35 3 51 10 45 20 -6 11 147 8
163 -2 10 -6 12 -6 6 3 -5 9 -1 9 14 -1 12 -7 21 -16 21 -19 0 -3 10 -6 23 -5
12 1 25 -3 28 -8 10 -13 114 -22 105 -8 -3 5 -15 8 -25 5 -11 -3 -28 0 -38 5
-16 9 -15 11 9 17 15 4 31 4 37 1 5 -4 11 -1 14 6 2 7 3 5 2 -4 -2 -9 5 -20
14 -23 13 -5 11 -9 -11 -21 -16 -8 -28 -19 -28 -24 0 -6 -7 -10 -15 -10 -8 0
-15 -6 -15 -14 0 -9 7 -13 19 -11 11 2 22 -3 25 -12 7 -18 -1 -33 -18 -33 -7
0 -22 -13 -34 -30 -13 -16 -30 -30 -40 -31 -14 0 -14 -2 3 -9 11 -5 14 -9 8
-9 -7 -1 -13 -7 -13 -14 0 -16 -22 -19 -128 -21 -77 -1 -98 -7 -69 -20 6 -3
-7 -3 -31 0 -32 4 -51 1 -76 -14 -22 -13 -47 -19 -70 -17 -37 4 -47 -10 -24
-33 9 -9 9 -12 0 -12 -7 0 -11 -3 -11 -7 3 -19 -2 -33 -12 -33 -6 0 -9 7 -5
15 7 19 -3 19 -18 0 -12 -16 -81 -23 -109 -11 -10 5 -30 2 -51 -8 -19 -9 -40
-16 -48 -16 -22 0 -118 -48 -118 -60 0 -13 -37 -13 -45 0 -10 15 -35 12 -35
-5 0 -8 -8 -15 -18 -15 -16 0 -72 -50 -72 -65 0 -14 -26 -32 -42 -29 -10 1
-16 -2 -15 -8 3 -15 -32 -35 -41 -22 -4 5 -22 16 -39 23 -18 8 -33 18 -33 23
0 14 -35 5 -36 -10 -1 -6 -2 -16 -3 -22 0 -5 -9 -10 -18 -11 -11 0 -13 -3 -5
-6 6 -2 10 -9 6 -14 -3 -5 7 -9 23 -10 15 0 42 -2 58 -4 17 -2 140 -6 275 -11
135 -4 247 -10 250 -14 3 -4 69 -3 148 3 100 7 178 7 264 0 67 -6 131 -8 142
-4 12 4 39 4 61 0 22 -3 33 -7 25 -9 -21 -3 29 -18 65 -19 20 0 26 2 16 8 -11
7 -11 9 0 14 8 3 5 6 -8 6 -12 1 -25 6 -29 12 -5 8 3 10 25 7 17 -2 31 -1 31
4 0 4 5 8 11 8 6 0 9 -7 6 -14 -4 -10 2 -18 16 -22 21 -7 21 -7 2 -15 -16 -6
-12 -8 15 -8 36 0 70 18 70 37 0 6 6 12 14 14 10 2 11 9 3 28 -15 38 -17 54
-5 61 12 8 -20 48 -36 45 -6 -2 -8 -1 -3 1 11 7 9 33 -3 33 -5 0 -10 6 -10 14
0 8 -12 24 -27 35 -16 12 -33 25 -39 30 -6 5 -24 16 -40 24 -16 9 -23 16 -16
17 21 0 13 30 -8 30 -21 0 -27 15 -10 25 6 3 10 3 10 -2 0 -4 11 -8 25 -8 14
0 25 6 25 13 0 11 5 13 43 16 26 2 42 79 20 98 -7 6 -10 15 -6 22 4 6 -1 5
-10 -3 -15 -12 -17 -12 -11 3 3 9 11 16 16 16 6 0 7 7 4 16 -3 8 -2 12 4 9 6
-3 10 -1 10 4 0 15 -53 14 -69 -1 -11 -10 -13 -10 -7 0 4 7 2 12 -5 12 -7 0
-2 9 11 20 21 18 17 26 -12 21 -5 0 -8 5 -8 12 0 8 -4 7 -10 -3 -8 -13 -10
-12 -10 3 0 9 6 17 13 17 8 0 14 6 14 14 0 8 -3 15 -6 14 -3 0 -13 0 -21 1
-13 1 -13 3 0 10 8 6 17 8 20 6 4 -2 6 6 6 18 -1 17 4 22 22 21 17 -1 22 4 22
22 0 19 -4 22 -24 18 -14 -2 -28 0 -31 6 -6 9 8 14 28 11 4 0 7 2 8 7 0 4 3
16 5 27 3 11 6 26 6 33 1 6 6 12 11 12 5 0 7 -6 4 -14 -3 -8 1 -17 10 -20 18
-7 35 2 27 15 -3 5 -10 7 -15 4 -17 -11 -9 11 11 33 12 12 16 22 11 22 -5 0
-3 14 5 30 9 17 20 30 25 30 6 0 7 -4 4 -10 -3 -5 -1 -10 5 -10 7 0 9 -7 6
-16 -5 -13 -2 -15 14 -11 13 3 20 0 20 -9 0 -8 5 -14 12 -14 6 0 8 -3 5 -7 -8
-7 11 -33 24 -33 5 0 9 5 9 11 0 5 -5 7 -12 3 -8 -5 -9 -2 -5 10 4 10 7 20 7
22 0 2 4 4 10 4 5 0 9 -3 9 -7 -1 -5 -1 -18 0 -30 1 -18 6 -21 31 -18 21 2 30
-1 30 -11 0 -8 8 -14 18 -13 10 0 12 3 5 6 -16 6 -17 36 -1 31 6 -2 12 -28 14
-57 2 -29 8 -59 15 -67 6 -7 9 -24 5 -37 -7 -31 3 -67 20 -67 8 0 14 -7 14
-15 0 -8 -5 -15 -11 -15 -6 0 -10 -17 -8 -42 1 -24 -3 -56 -9 -71 -10 -23 -9
-31 4 -44 10 -10 12 -18 5 -22 -6 -4 -6 -12 -1 -21 5 -8 5 -21 -1 -32 -7 -14
-6 -18 6 -18 8 0 15 -4 15 -10 0 -5 -4 -10 -9 -10 -14 0 -19 -60 -6 -68 15 -9
30 -52 18 -52 -5 0 -14 5 -21 12 -19 19 -15 -12 4 -33 16 -17 13 -55 -3 -46
-14 9 -9 -237 5 -248 19 -15 35 -118 37 -227 1 -87 -1 -98 -16 -98 -10 0 -21
-5 -24 -11 -5 -7 3 -9 21 -7 27 3 30 7 36 53 13 101 18 131 29 185 11 55 28
98 29 72 0 -12 94 31 105 49 3 5 27 18 52 29 l47 21 20 -21 c19 -19 21 -33 21
-158 l0 -137 -48 -115 c-44 -103 -50 -129 -62 -241 -9 -87 -21 -143 -38 -185
-14 -32 -28 -78 -32 -101 -4 -24 -10 -45 -15 -48 -5 -3 -18 -34 -30 -70 -19
-56 -48 -95 -71 -95 -13 0 1 125 16 136 11 8 12 18 6 42 -5 17 -7 49 -4 71 6
46 -4 131 -17 131 -4 0 -11 -24 -15 -52 -4 -29 -12 -64 -17 -78 -6 -14 -12
-42 -14 -62 -2 -21 -6 -48 -8 -60 -3 -13 -14 -70 -26 -128 -12 -58 -25 -113
-31 -122 -5 -10 -9 -28 -9 -42 0 -13 -7 -29 -15 -36 -8 -7 -15 -28 -15 -47 0
-27 -3 -34 -15 -29 -12 4 -15 -4 -16 -37 0 -23 -3 -36 -6 -29 -7 17 -23 15
-23 -4 0 -10 -6 -14 -15 -11 -10 4 -17 -5 -24 -30 -12 -44 -6 -57 8 -19 10 25
41 37 41 15 0 -19 -20 -48 -41 -60 -15 -8 -19 -8 -15 0 4 6 2 11 -4 11 -19 0
-50 -20 -50 -33 0 -7 4 -6 10 3 8 12 10 12 10 1 0 -9 7 -11 21 -8 15 4 19 2
15 -10 -3 -8 -6 -17 -6 -20 0 -3 -6 0 -14 6 -11 9 -16 9 -22 0 -4 -7 -3 -14 4
-17 12 -4 5 -32 -9 -32 -5 0 -9 9 -9 20 0 13 -5 17 -14 14 -8 -3 -16 2 -19 13
-4 16 -6 15 -12 -5 -7 -22 -25 -31 -25 -12 0 19 -29 10 -48 -15 -11 -14 -23
-25 -27 -25 -15 0 -34 -36 -35 -63 0 -18 9 -36 22 -48 13 -10 19 -18 13 -18
-15 0 -40 22 -48 42 -3 9 -11 17 -16 17 -15 0 -17 -52 -4 -80 7 -14 10 -43 8
-64 -5 -40 -15 -62 -15 -34 0 8 -8 22 -17 30 -20 17 -53 20 -53 5 0 -5 -11 -7
-25 -5 -14 3 -25 1 -25 -3 0 -5 4 -9 9 -9 5 0 7 -9 4 -21 -3 -11 -11 -18 -18
-15 -8 3 -11 -2 -8 -15 5 -19 -12 -28 -19 -8 -6 17 -34 0 -35 -22 -1 -13 3
-19 11 -16 10 4 13 -6 12 -38 -1 -38 -4 -43 -23 -41 -12 2 -29 8 -37 16 -9 7
-16 9 -16 5 0 -4 -7 -2 -16 6 -8 7 -13 21 -11 31 3 10 1 18 -4 18 -5 0 -9 9
-9 21 0 11 -4 18 -9 15 -5 -4 -7 2 -4 13 4 17 -12 56 -53 133 -8 14 -30 40
-48 56 -19 17 -32 33 -29 36 3 3 -2 8 -11 12 -9 3 -16 13 -16 22 0 8 -3 12 -7
9 -3 -4 -17 3 -30 15 -12 12 -35 23 -49 24 -14 2 -31 10 -38 20 -7 9 -32 18
-57 21 -24 3 -52 9 -61 14 -10 6 -19 5 -23 -1 -5 -8 -11 -7 -21 1 -7 6 -21 9
-29 5 -8 -3 -15 -1 -15 4 0 6 -6 10 -14 10 -8 0 -17 8 -20 17 -5 11 -10 13
-17 6 -12 -12 -49 -5 -49 9 0 5 5 6 10 3 6 -3 10 0 10 8 0 10 -9 13 -31 11
-27 -3 -31 -1 -26 16 3 11 1 23 -4 26 -5 3 -9 -4 -9 -15 0 -18 -3 -19 -31 -9
-17 6 -33 16 -35 23 -3 7 -14 11 -25 8 -15 -4 -19 0 -19 17 0 19 -2 20 -15 10
-12 -10 -15 -10 -15 1 0 9 -3 10 -8 4 -7 -10 -38 -16 -79 -16 -13 1 -23 -3
-23 -8 0 -5 -14 -7 -31 -4 -23 3 -41 -2 -63 -18 -17 -13 -25 -16 -18 -7 11 14
9 17 -17 23 -16 3 -35 12 -41 20 -6 8 -18 11 -26 8 -8 -3 -26 5 -39 17 -13 12
-31 20 -39 17 -8 -3 -17 -3 -20 1 -14 13 -186 18 -195 5 -3 -6 -14 -9 -24 -7
-10 1 -14 -2 -10 -9 4 -7 0 -8 -12 -4 -14 6 -16 3 -12 -15 5 -21 5 -21 -7 -5
-17 22 -29 22 -51 -3 -17 -19 -19 -19 -31 -2 -12 16 -13 16 -19 0 -6 -14 -16
-17 -55 -14 -34 3 -52 0 -61 -10 -6 -7 -15 -12 -19 -9 -4 3 -23 -2 -41 -10
-19 -8 -30 -14 -25 -15 6 0 1 -6 -9 -14 -15 -11 -25 -12 -40 -3 -18 9 -18 8
-7 -6 11 -13 10 -17 -5 -26 -48 -27 -49 -29 -29 -44 18 -13 18 -15 3 -38 -21
-29 -22 -43 -2 -35 8 3 22 9 30 12 21 8 20 -39 -1 -57 -9 -8 -13 -21 -10 -35
6 -24 -9 -43 -17 -22 -2 8 -10 1 -17 -14 -7 -16 -17 -28 -22 -28 -5 0 -6 -5
-3 -10 4 -6 0 -22 -9 -35 -23 -35 -20 -54 9 -61 25 -6 37 -27 13 -22 -7 1 -24
-4 -37 -11 -23 -13 -24 -14 -6 -27 16 -12 17 -14 2 -20 -10 -3 -17 -10 -17
-16 0 -5 5 -6 10 -3 6 3 10 -1 10 -11 0 -14 3 -14 15 -4 13 11 18 10 30 -6 17
-23 18 -31 6 -39 -6 -3 -8 -19 -6 -35 2 -17 0 -30 -5 -30 -5 0 -16 -3 -25 -7
-15 -5 -16 -1 -10 28 4 19 12 41 18 49 6 8 -3 2 -20 -14 -23 -20 -30 -35 -27
-52 3 -19 1 -22 -13 -17 -10 4 -21 11 -25 17 -5 7 -8 5 -8 -5 0 -9 7 -19 15
-23 23 -8 18 -29 -5 -22 -11 3 -28 9 -38 12 -13 4 -22 -2 -30 -20 -7 -16 -8
-28 -2 -31 7 -4 6 -13 0 -25 -7 -13 -7 -21 0 -25 5 -3 10 -1 10 5 0 6 5 8 12
4 7 -5 9 -2 5 9 -3 8 0 20 6 25 9 8 13 1 15 -24 1 -24 -2 -33 -9 -28 -16 9
-29 -15 -29 -54 0 -19 -4 -31 -10 -27 -5 3 -6 13 -3 21 5 13 1 15 -18 10 -21
-6 -22 -5 -9 6 16 14 15 48 -1 48 -5 0 -2 11 7 25 10 15 12 25 5 25 -6 0 -11
-4 -11 -9 0 -5 -9 -13 -21 -16 -15 -5 -18 -10 -10 -18 17 -17 13 -26 -8 -20
-24 6 -36 -13 -21 -32 8 -10 9 -15 2 -15 -6 0 -9 -6 -6 -14 4 -11 12 -13 30
-6 20 8 25 6 30 -15 5 -21 9 -23 26 -14 17 9 19 8 14 -8 -15 -53 -17 -71 -5
-78 7 -5 15 -1 21 9 5 9 20 16 33 16 16 0 25 6 25 16 0 8 5 12 10 9 20 -13 9
-26 -45 -52 -58 -28 -69 -47 -34 -56 15 -4 19 -12 17 -34 -2 -18 1 -27 10 -26
6 2 12 -2 12 -7 0 -6 -4 -10 -10 -10 -5 0 -7 -7 -3 -15 3 -9 2 -15 -3 -14 -5
1 -18 1 -28 0 -18 -1 -18 -2 4 -25 24 -27 21 -62 -5 -52 -8 3 -15 1 -15 -4 0
-6 11 -10 25 -10 21 0 25 5 25 28 1 25 2 25 12 8 9 -16 7 -23 -15 -42 -29 -25
-18 -37 20 -23 13 5 25 4 28 -1 10 -17 25 -11 25 10 0 11 5 20 11 20 6 0 9 -7
5 -15 -9 -24 14 -17 25 8 8 19 9 17 4 -11 -3 -20 -1 -31 5 -27 6 3 10 -5 10
-19 0 -26 -14 -35 -25 -16 -10 17 -21 11 -34 -17 -11 -24 -10 -25 4 -13 8 7
19 10 22 6 4 -4 3 -10 -3 -14 -15 -10 -25 -42 -14 -42 18 0 11 -29 -12 -50
-26 -24 -38 -26 -38 -5 0 8 -4 15 -10 15 -5 0 -10 9 -10 21 0 23 -30 60 -30
37 -1 -10 -4 -9 -13 2 -16 21 -47 14 -47 -10 0 -20 -17 -36 -27 -26 -3 3 0 12
7 21 7 8 10 24 7 35 -3 11 -1 20 4 20 5 0 9 5 9 11 0 6 -9 8 -20 4 -23 -7 -27
10 -6 22 7 4 17 19 21 33 8 24 7 24 -18 7 -15 -9 -32 -17 -39 -17 -9 0 -10 2
-2 8 11 6 18 46 15 80 -2 18 -28 15 -40 -5 -10 -17 -12 -17 -26 1 -17 23 -20
14 -4 -15 6 -12 7 -28 4 -37 -16 -38 9 -285 40 -412 8 -30 26 -111 40 -180 15
-69 42 -170 60 -225 30 -89 80 -275 100 -375 4 -19 17 -46 29 -61 11 -14 34
-53 50 -87 l30 -62 285 0 c270 1 287 2 310 20 15 13 22 27 18 40 -3 11 -1 20
4 20 5 0 9 -4 9 -10 0 -5 6 -10 14 -10 15 0 16 16 3 37 -4 6 -2 15 4 19 8 4 9
3 5 -4 -4 -7 -2 -12 3 -12 6 0 11 7 11 16 0 8 4 12 10 9 6 -3 10 -2 10 4 0 6
7 8 15 5 8 -4 15 -1 15 6 0 6 5 8 10 5 6 -3 10 -1 10 4 0 6 5 11 11 11 5 0 7
-4 4 -10 -10 -16 1 -11 16 7 8 10 9 14 2 10 -6 -4 -14 -3 -17 2 -7 10 9 9 37
-4 10 -4 21 -5 24 -1 4 3 -1 6 -11 6 -9 0 -14 5 -11 11 4 5 12 8 18 6 7 -2 24
2 40 10 25 12 31 10 28 -9 0 -4 6 -5 14 -2 8 4 15 14 15 23 0 14 -2 14 -10 1
-7 -12 -9 -10 -7 8 1 14 6 21 14 18 7 -3 13 -1 13 5 0 6 5 7 11 3 8 -4 7 -9
-2 -15 -7 -4 -10 -11 -6 -15 10 -10 39 17 33 31 -3 8 4 11 20 9 17 -1 36 11
71 48 114 118 257 229 398 309 106 60 131 69 199 73 52 3 61 8 94 42 21 22 44
52 52 68 15 28 76 97 210 235 69 71 99 106 181 211 28 36 66 83 84 105 19 22
42 56 52 75 10 19 26 43 36 54 9 11 17 24 17 29 0 8 10 34 48 119 9 20 20 34
24 32 8 -5 28 37 46 96 18 58 31 148 42 279 6 68 15 142 21 165 17 63 18 75 9
81 -5 3 -12 31 -15 63 -4 31 -9 65 -11 75 -3 9 -1 17 4 17 5 0 15 -20 21 -44
11 -44 13 -46 105 -89 55 -26 115 -64 143 -89 26 -25 73 -64 103 -87 30 -24
73 -60 95 -80 120 -110 401 -331 550 -432 103 -70 729 -304 909 -340 158 -32
212 -70 295 -207 59 -99 109 -152 196 -211 41 -28 77 -51 80 -51 3 0 5 589 5
1309 l0 1309 -91 47 c-89 46 -92 47 -137 35 -44 -11 -46 -10 -67 16 l-22 27
-96 -13 c-56 -7 -112 -9 -134 -5 -21 5 -42 7 -48 5 -5 -1 -59 -2 -120 -1
l-110 2 -138 59 c-76 33 -155 61 -175 64 -56 8 -250 18 -414 21 -145 3 -148 3
-149 -19 -1 -14 -4 -9 -11 14 -5 19 -13 40 -17 45 -13 16 -20 51 -41 199 -11
76 -27 166 -35 200 -8 34 -22 95 -30 136 -8 41 -26 118 -41 170 -31 113 -95
357 -101 386 -8 33 20 45 134 55 59 5 131 13 158 18 176 30 318 52 368 57 36
3 55 9 51 16 -4 6 1 8 15 3 22 -7 175 16 273 41 32 8 79 14 105 13 52 -2 199
18 223 30 8 5 24 7 35 5 10 -2 24 1 30 5 5 4 28 9 50 10 22 2 47 7 55 11 8 4
33 8 55 8 45 0 77 6 101 20 9 5 32 6 52 1 42 -9 52 -5 52 22 0 10 3 18 8 17 4
-1 32 2 62 7 54 8 65 9 123 13 l27 2 0 290 0 290 -41 0 c-29 0 -38 -3 -33 -12
6 -10 4 -10 -8 0 -11 9 -18 10 -23 2 -6 -9 -88 -5 -107 6 -4 2 -10 0 -13 -6
-5 -8 -11 -7 -21 1 -12 10 -15 10 -12 -2 2 -10 -6 -14 -29 -13 -25 1 -30 -2
-23 -11 8 -10 -55 -12 -280 -11 -159 0 -290 -2 -290 -5 0 -7 -164 2 -168 10
-1 3 -23 4 -48 2 -36 -2 -45 0 -39 9 6 10 2 12 -13 8 -12 -4 -22 -2 -22 4 0 5
-10 2 -22 -6 -26 -18 -58 -21 -58 -5 0 5 -5 7 -11 3 -8 -5 -8 -9 1 -14 8 -5 3
-10 -15 -14 -14 -4 -30 -4 -35 -1 -15 9 1 36 28 46 43 16 12 34 -40 23 -54
-12 -137 3 -160 29 -16 18 -19 18 -33 3 -19 -19 -51 -21 -61 -4 -4 7 -3 8 4 4
8 -4 12 0 12 11 0 10 3 28 6 39 4 14 0 23 -11 28 -11 4 -14 2 -10 -7 4 -6 -2
-2 -14 11 -18 21 -40 15 -26 -8 9 -15 -4 -32 -18 -23 -7 4 -21 9 -31 10 -11 2
-24 7 -30 11 -19 14 -67 13 -89 -3 -25 -17 -47 -4 -40 24 8 30 -25 46 -96 46
-64 1 -66 2 -63 25 2 22 1 23 -8 8 -15 -24 -30 -23 -30 2 0 11 5 20 11 20 7 0
9 12 5 34 -4 20 -2 37 4 41 16 10 2 25 -16 18 -12 -4 -15 -15 -11 -39 5 -32
-5 -45 -18 -24 -4 6 -11 8 -16 4 -5 -3 -6 -11 -2 -17 4 -7 -1 -6 -11 2 -13 11
-14 16 -5 22 20 12 21 42 1 34 -9 -3 -13 -3 -9 1 4 4 2 13 -3 19 -6 7 -11 27
-13 46 -2 28 -7 35 -27 37 -32 5 -73 42 -61 56 16 21 6 61 -17 64 -11 2 -24
12 -27 23 -4 10 -14 20 -23 21 -9 0 -22 2 -29 2 -25 3 -25 16 0 16 15 0 27 4
27 9 0 6 15 11 33 13 45 4 43 31 -3 38 -26 4 -34 9 -32 23 3 20 -32 24 -44 5
-4 -6 -3 -8 3 -5 5 3 10 -1 10 -9 0 -11 -5 -10 -22 6 -24 22 -98 27 -169 10
-29 -6 -42 -5 -53 5 -8 9 -9 16 -3 20 17 11 11 24 -14 31 -16 4 -23 11 -19 20
3 8 0 21 -7 29 -15 18 -15 17 24 37 29 15 29 16 8 22 -12 4 -22 14 -22 22 0
16 26 19 35 4 11 -18 43 8 50 40 4 16 11 30 16 30 13 0 11 -34 -3 -48 -21 -21
-1 -25 45 -9 45 15 91 13 116 -7 11 -8 15 -8 18 2 3 6 11 12 19 12 10 0 13 8
9 28 l-6 27 17 -27 c28 -43 92 -49 79 -8 -3 10 -2 21 4 24 15 10 0 46 -20 46
-16 0 -18 -6 -14 -42 4 -39 3 -41 -11 -24 -8 11 -14 32 -14 48 0 19 -5 28 -16
28 -9 0 -18 8 -21 18 -2 10 -16 25 -30 34 -26 16 -26 16 -4 23 17 5 19 10 11
20 -8 10 -4 14 17 20 28 6 73 42 73 56 0 18 -50 60 -67 57 -30 -6 -22 -33 10
-30 18 2 27 -2 27 -12 0 -18 -17 -30 -24 -17 -7 11 -111 7 -139 -4 -10 -4 -29
-3 -43 4 -14 6 -38 11 -55 11 -17 0 -28 4 -24 9 5 9 69 14 147 12 29 0 45 13
28 24 -7 4 -7 12 0 25 6 11 8 31 4 46 -6 25 -9 26 -58 19 -48 -6 -66 -17 -65
-40 0 -5 3 -4 6 3 6 15 31 15 61 -1 22 -13 22 -14 5 -29 -24 -22 -152 -35
-183 -18 -12 7 -33 13 -47 15 -45 5 -47 21 -6 42 39 20 55 55 34 76 -6 6 -11
21 -11 33 0 15 -6 21 -17 20 -27 -2 -34 -18 -18 -43 8 -12 12 -30 8 -39 -5
-13 -3 -16 10 -11 11 4 14 2 10 -9 -4 -12 -8 -12 -22 -2 -31 23 -50 53 -45 70
3 9 0 19 -6 23 -5 3 -10 -1 -10 -9 0 -20 -76 -23 -82 -4 -7 19 -38 -15 -38
-40 0 -11 -7 -23 -16 -26 -22 -8 -20 -9 -48 18 -29 26 -33 42 -13 49 9 4 9 6
-1 6 -8 1 -29 -6 -47 -15 -24 -11 -39 -13 -52 -6 -12 7 -25 7 -36 1 -13 -8
-17 -6 -17 5 0 8 -8 19 -17 25 -30 17 -2 35 31 20 22 -11 29 -10 43 4 42 42
43 42 -1619 44 -1544 3 -1578 2 -1588 -16z m140 -91 c0 -5 -7 -10 -15 -10 -8
0 -15 5 -15 10 0 6 7 10 15 10 8 0 15 -4 15 -10z m3120 -20 c0 -5 -9 -10 -20
-10 -11 0 -20 5 -20 10 0 6 9 10 20 10 11 0 20 -4 20 -10z m370 -160 c0 -5 -2
-10 -4 -10 -3 0 -8 5 -11 10 -3 6 -1 10 4 10 6 0 11 -4 11 -10z m40 -113 c9
-3 4 -6 -12 -6 -27 -1 -35 8 -21 22 4 4 9 3 12 -1 3 -5 13 -12 21 -15z m-4010
-7 c-8 -5 -18 -6 -24 -3 -5 4 -1 10 10 13 24 9 34 2 14 -10z m100 -44 c0 -8
-4 -17 -9 -20 -10 -7 -23 19 -14 28 11 11 23 6 23 -8z m3980 4 c0 -5 -5 -10
-11 -10 -5 0 -7 5 -4 10 3 6 8 10 11 10 2 0 4 -4 4 -10z m110 -66 c0 -2 -7 -4
-15 -4 -8 0 -15 4 -15 10 0 5 7 7 15 4 8 -4 15 -8 15 -10z m-204 -2 c6 -4 14
-17 18 -29 6 -19 4 -23 -16 -23 -40 0 -66 11 -71 30 -7 26 41 41 69 22z m161
2 c-3 -3 -12 -4 -19 -1 -8 3 -5 6 6 6 11 1 17 -2 13 -5z m-10 -40 c-3 -3 -12
-4 -19 -1 -8 3 -5 6 6 6 11 1 17 -2 13 -5z m-207 -48 c0 -3 -4 -8 -10 -11 -5
-3 -10 -1 -10 4 0 6 5 11 10 11 6 0 10 -2 10 -4z m-10 -66 c0 -5 -2 -10 -4
-10 -3 0 -8 5 -11 10 -3 6 -1 10 4 10 6 0 11 -4 11 -10z m-4060 -85 c0 -8 -4
-15 -10 -15 -5 0 -10 7 -10 15 0 8 5 15 10 15 6 0 10 -7 10 -15z m-10 -49 c0
-11 -19 -15 -25 -6 -3 5 1 10 9 10 9 0 16 -2 16 -4z m4330 -122 c0 -8 -4 -14
-10 -14 -5 0 -10 9 -10 21 0 11 5 17 10 14 6 -3 10 -13 10 -21z m-2655 6 c3
-5 1 -10 -4 -10 -6 0 -11 5 -11 10 0 6 2 10 4 10 3 0 8 -4 11 -10z m2735 -16
c0 -2 -9 -4 -21 -4 -11 0 -18 4 -14 10 5 8 35 3 35 -6z m-80 -18 c0 -3 -4 -8
-10 -11 -5 -3 -10 -1 -10 4 0 6 5 11 10 11 6 0 10 -2 10 -4z m140 -70 c0 -19
-4 -23 -20 -19 -23 6 -25 14 -8 31 18 18 28 14 28 -12z m-4700 -5 c0 -6 -4
-13 -10 -16 -5 -3 -10 1 -10 9 0 9 5 16 10 16 6 0 10 -4 10 -9z m4860 -237 c0
-16 -26 -19 -35 -4 -3 6 -4 14 0 20 8 13 35 1 35 -16z m-3866 -30 c3 -8 2 -12
-4 -9 -6 3 -10 10 -10 16 0 14 7 11 14 -7z m236 -20 c0 -8 -19 -13 -24 -6 -3
5 1 9 9 9 8 0 15 -2 15 -3z m205 -3 c-3 -5 -1 -12 5 -16 6 -4 8 -11 5 -16 -4
-5 0 -9 7 -10 7 0 3 -4 -9 -9 -28 -12 -30 -30 -3 -30 11 0 20 -3 20 -6 0 -10
-28 -34 -39 -34 -6 0 -11 -4 -11 -10 0 -5 7 -10 16 -10 13 0 11 -6 -9 -24 -21
-20 -26 -31 -21 -54 5 -26 3 -30 -26 -36 -30 -6 -32 -8 -26 -38 5 -30 4 -33
-19 -33 -14 0 -25 3 -25 8 0 4 4 7 9 7 5 0 11 9 14 20 3 11 1 18 -3 15 -5 -3
-11 1 -14 7 -3 7 -3 3 0 -9 4 -18 2 -22 -10 -17 -9 3 -16 11 -16 18 0 6 -7 3
-15 -8 -7 -10 -20 -16 -27 -14 -16 6 -18 50 -3 60 6 5 5 8 -3 8 -7 0 -11 4 -7
9 3 5 -4 12 -15 16 -11 3 -20 14 -20 23 0 19 36 82 46 82 4 0 1 -7 -6 -15 -6
-8 -8 -20 -4 -26 4 -7 3 -9 -3 -6 -6 4 -10 -4 -10 -18 0 -14 4 -28 8 -31 5 -3
9 -2 8 3 -4 21 2 30 19 30 39 0 66 5 54 10 -10 4 -10 8 0 21 8 10 9 13 1 9 -6
-4 -15 -2 -19 4 -3 6 -1 15 6 19 7 4 10 12 6 18 -3 5 2 16 11 23 12 10 14 10
9 2 -4 -7 -3 -13 1 -13 5 0 15 6 22 13 11 10 11 8 2 -11 -11 -20 -15 -21 -29
-10 -15 12 -16 11 -4 -4 16 -20 39 -14 48 14 4 13 11 17 22 14 14 -5 14 -4 -1
8 -16 12 -16 14 -2 20 9 3 14 2 11 -3 -3 -5 2 -11 12 -13 11 -3 19 0 19 8 0 7
-4 11 -9 8 -4 -3 -8 2 -8 11 0 9 5 13 10 10 6 -3 10 -1 10 4 0 6 5 11 11 11 5
0 8 -4 4 -9z m-180 -39 c-3 -3 -11 0 -18 7 -9 10 -8 11 6 5 10 -3 15 -9 12
-12z m225 8 c0 -5 -2 -10 -4 -10 -3 0 -8 5 -11 10 -3 6 -1 10 4 10 6 0 11 -4
11 -10z m-228 -25 c2 3 5 -1 5 -9 0 -7 -10 -13 -21 -12 -12 1 -21 -4 -21 -11
0 -6 -3 -14 -7 -18 -5 -6 -3 25 2 33 2 2 6 14 9 28 0 4 7 1 14 -5 8 -6 16 -9
19 -6z m3993 -31 c18 7 20 -5 3 -22 -18 -18 3 -14 23 4 16 14 18 14 28 -4 12
-22 -2 -32 -44 -32 -28 0 -75 40 -75 64 0 15 2 15 25 0 14 -9 32 -14 40 -10z
m-4435 -8 c0 -11 -19 -15 -25 -6 -3 5 1 10 9 10 9 0 16 -2 16 -4z m4360 0 c0
-2 -7 -6 -15 -10 -8 -3 -15 -1 -15 4 0 6 7 10 15 10 8 0 15 -2 15 -4z m-3986
-54 c-4 -9 -6 -21 -5 -25 1 -5 -2 -6 -7 -3 -5 3 -4 21 2 41 6 21 12 29 14 20
2 -9 0 -24 -4 -33z m-235 22 c2 -2 -12 -4 -33 -4 -22 0 -35 4 -31 10 5 9 52 4
64 -6z m253 -88 c7 4 8 2 4 -4 -4 -7 -3 -12 2 -12 5 0 9 -6 9 -14 0 -8 -8 -11
-19 -8 -10 2 -18 10 -18 17 0 8 -3 22 -6 32 -5 17 -5 17 6 0 6 -9 16 -14 22
-11z m4478 -11 c0 -8 -4 -15 -10 -15 -5 0 -10 7 -10 15 0 8 5 15 10 15 6 0 10
-7 10 -15z m-5015 -270 c15 -14 25 -35 24 -52 l0 -28 -10 25 c-6 14 -22 37
-36 53 -33 34 -11 36 22 2z m2885 -47 c0 -5 -9 -8 -19 -8 -14 0 -19 -6 -18
-20 1 -18 3 -18 24 -5 31 21 54 19 60 -5 6 -23 18 -26 29 -8 4 6 2 14 -4 16
-20 6 -3 20 18 15 11 -3 17 -10 13 -16 -18 -29 -10 -47 21 -46 17 0 25 3 19 6
-32 13 1 47 35 36 14 -5 17 -33 2 -33 -5 0 -7 -7 -4 -15 4 -10 0 -15 -12 -15
-11 0 -28 -7 -38 -15 -11 -8 -16 -15 -12 -15 4 0 5 -4 1 -10 -4 -6 -15 -6 -30
0 -16 6 -25 6 -25 0 0 -6 9 -10 20 -10 21 0 27 -15 10 -25 -5 -3 -10 -12 -10
-18 1 -8 5 -6 13 3 17 21 65 41 72 30 3 -5 -5 -10 -17 -12 l-23 -3 23 -23 c13
-13 22 -25 20 -27 -7 -6 -97 -12 -93 -6 2 4 -6 8 -18 9 -12 1 -39 3 -59 5 -20
1 -34 -1 -32 -5 3 -4 17 -8 32 -8 15 0 35 -9 45 -20 16 -19 25 -41 11 -27 -4
3 -15 2 -24 -3 -13 -7 -21 -5 -30 5 -10 12 -9 15 9 15 11 0 21 5 21 11 0 8
-17 10 -53 6 -55 -5 -92 6 -81 26 3 7 -6 0 -19 -15 -14 -15 -28 -24 -32 -20
-4 4 -19 7 -35 7 -20 0 -26 -4 -22 -15 3 -8 2 -12 -3 -8 -4 4 -15 2 -24 -5
-14 -11 -14 -10 -2 6 9 11 10 17 2 17 -6 0 -14 0 -18 0 -5 0 -8 -5 -8 -10 0
-30 -68 -28 -86 2 -9 14 -51 0 -43 -15 4 -7 3 -8 -2 -4 -5 5 -9 14 -9 20 0 7
-7 13 -15 13 -8 1 -19 2 -24 3 -6 0 0 10 11 21 34 31 20 55 -31 54 -36 -1 -43
2 -39 16 3 10 16 23 29 29 31 14 47 14 39 1 -3 -5 1 -10 10 -10 9 0 14 4 11 8
-3 5 1 9 9 9 8 0 12 -3 10 -7 -2 -4 2 -7 10 -7 8 0 12 4 8 10 -3 5 5 7 18 5
13 -2 23 -9 21 -16 -1 -8 2 -11 7 -8 5 4 12 -2 15 -11 3 -11 4 -8 3 7 -2 20 3
25 23 25 18 0 24 5 22 17 -1 9 7 22 18 28 11 6 20 7 20 2 0 -6 8 -12 18 -14
12 -4 18 1 19 14 3 31 30 51 61 43 41 -12 75 -10 80 3 4 13 -24 12 -45 -1 -6
-4 -15 -2 -19 4 -4 7 -3 9 4 5 6 -3 13 -2 17 4 4 6 11 8 16 5 5 -4 9 -2 9 2 0
5 16 8 35 8 19 0 35 -3 35 -7z m220 -48 c0 -5 -5 -10 -11 -10 -5 0 -7 5 -4 10
3 6 8 10 11 10 2 0 4 -4 4 -10z m-1335 -20 c3 -5 -1 -10 -9 -10 -9 0 -16 5
-16 10 0 6 4 10 9 10 6 0 13 -4 16 -10z m300 -20 c-3 -5 -13 -10 -21 -10 -8 0
-14 5 -14 10 0 6 9 10 21 10 11 0 17 -4 14 -10z m150 -30 c-3 -5 -11 -10 -16
-10 -6 0 -7 5 -4 10 3 6 11 10 16 10 6 0 7 -4 4 -10z m-491 -8 c3 -5 -1 -9 -9
-9 -8 0 -12 4 -9 9 3 4 7 8 9 8 2 0 6 -4 9 -8z m1316 -1 c0 -5 -7 -11 -14 -14
-10 -4 -13 -1 -9 9 6 15 23 19 23 5z m-1160 -26 c0 -8 -4 -17 -10 -20 -6 -4
-10 5 -10 20 0 15 4 24 10 20 6 -3 10 -12 10 -20z m60 -5 c0 -11 -4 -20 -10
-20 -5 0 -10 9 -10 20 0 11 5 20 10 20 6 0 10 -9 10 -20z m-13 -36 c5 -14 -38
-27 -50 -15 -5 5 -6 14 -2 21 8 14 47 9 52 -6z m1138 6 c3 -5 -1 -10 -10 -10
-9 0 -13 5 -10 10 3 6 8 10 10 10 2 0 7 -4 10 -10z m-1222 -16 c-4 -13 -26
-11 -30 3 -2 6 4 10 14 9 10 -2 17 -7 16 -12z m1457 6 c0 -5 -4 -10 -10 -10
-5 0 -10 5 -10 10 0 6 5 10 10 10 6 0 10 -4 10 -10z m-855 -56 c8 3 15 1 15
-5 0 -6 -8 -9 -17 -7 -10 1 -24 -1 -32 -6 -11 -7 -12 -6 -5 5 5 8 8 23 6 34
-1 16 0 16 8 -4 7 -15 16 -21 25 -17z m693 19 c-10 -2 -28 -2 -40 0 -13 2 -5
4 17 4 22 1 32 -1 23 -4z m332 -2 c0 -5 -13 -11 -30 -13 -36 -5 -39 -1 -7 12
29 12 37 12 37 1z m-865 -67 c0 -5 -10 -10 -22 -12 -16 -2 -23 2 -23 12 0 11
7 15 23 12 12 -1 22 -7 22 -12z m-131 -94 c5 -21 3 -20 -9 5 -10 20 -14 24
-15 12 0 -10 -4 -15 -10 -12 -6 4 -5 13 2 25 14 21 21 14 32 -30z m-1594 24
c0 -8 -5 -12 -10 -9 -6 4 -8 11 -5 16 9 14 15 11 15 -7z m2424 1 c3 3 2 0 -3
-6 -12 -14 -45 -3 -36 11 5 8 11 8 19 1 7 -6 16 -9 20 -6z m108 -28 c-5 -20
-6 -20 -13 -1 -11 29 -10 34 5 28 8 -3 12 -13 8 -27z m-347 13 c-3 -5 -12 -7
-20 -3 -21 7 -19 13 6 13 11 0 18 -4 14 -10z m-512 -53 c3 -8 -1 -14 -8 -14
-7 0 -11 6 -8 14 3 7 6 13 8 13 2 0 5 -6 8 -13z m197 -33 c0 -8 -5 -12 -10 -9
-6 4 -8 11 -5 16 9 14 15 11 15 -7z m1070 -344 c0 -5 -4 -10 -10 -10 -5 0 -10
5 -10 10 0 6 5 10 10 10 6 0 10 -4 10 -10z m-2817 -137 c-7 -2 -21 -2 -30 0
-10 3 -4 5 12 5 17 0 24 -2 18 -5z m-1903 -24 c0 -5 -4 -9 -8 -9 -5 0 -9 7 -9
15 0 8 4 12 9 9 4 -3 8 -9 8 -15z m4390 -79 c8 -5 11 -10 5 -10 -5 0 -17 5
-25 10 -8 5 -10 10 -5 10 6 0 17 -5 25 -10z m50 -50 c0 -5 -4 -10 -10 -10 -5
0 -10 5 -10 10 0 6 5 10 10 10 6 0 10 -4 10 -10z m-4444 -46 c1 -9 0 -13 -4
-10 -3 4 -7 14 -8 22 -1 9 0 13 4 10 3 -4 7 -14 8 -22z m-49 -84 c-1 -11 -7
-20 -14 -20 -7 0 -10 -7 -6 -17 4 -13 3 -15 -6 -7 -6 6 -13 21 -16 33 -3 19
-2 21 10 11 12 -10 16 -9 21 4 8 22 13 20 11 -4z m337 -659 c3 -5 -1 -11 -9
-14 -9 -4 -12 -1 -8 9 6 16 10 17 17 5z m-203 -428 c-8 -15 -10 -15 -11 -2 0
17 10 32 18 25 2 -3 -1 -13 -7 -23z m-527 -323 c2 -8 6 -19 8 -25 1 -5 -1 -10
-7 -10 -5 0 -10 5 -11 10 -2 33 -17 75 -27 75 -7 0 -6 4 3 10 15 9 20 0 34
-60z m3416 -90 c0 -5 -2 -10 -4 -10 -3 0 -8 5 -11 10 -3 6 -1 10 4 10 6 0 11
-4 11 -10z m-50 -15 c-7 -9 -15 -13 -19 -10 -3 3 1 10 9 15 21 14 24 12 10 -5z
m-17 -132 c36 -29 65 -29 110 1 56 38 137 23 137 -25 0 -11 5 -19 10 -19 6 0
10 7 10 16 0 8 5 12 10 9 6 -3 10 -15 10 -27 0 -17 5 -20 31 -16 20 3 33 0 36
-9 4 -11 11 -9 29 8 41 39 104 24 104 -25 1 -20 2 -20 14 -4 12 17 14 17 31
-2 9 -10 15 -26 11 -35 -3 -9 -2 -13 3 -10 5 3 12 1 16 -5 4 -6 -4 -9 -17 -9
-26 2 -87 16 -75 18 5 0 5 6 2 11 -5 8 -11 7 -21 -1 -7 -6 -11 -15 -8 -20 3
-5 -8 -9 -24 -9 -16 0 -48 -7 -71 -15 -23 -8 -43 -15 -46 -15 -11 -1 -41 -12
-55 -19 -8 -4 -52 -6 -97 -3 -50 2 -83 0 -83 -6 0 -19 -50 -20 -63 -1 -7 10
-30 20 -52 22 -22 3 -49 9 -60 13 -31 11 -65 46 -58 58 3 6 0 5 -8 -1 -17 -17
-41 -16 -64 0 -17 13 -17 14 1 12 11 0 25 -4 32 -8 8 -6 10 -3 5 9 -4 12 -3
15 6 10 6 -4 11 -4 10 1 -3 20 2 34 11 28 6 -4 8 -12 4 -18 -3 -7 1 -4 9 6 15
18 32 24 22 7 -9 -15 -15 -54 -7 -46 7 7 8 12 11 38 0 6 4 8 8 5 3 -4 13 -1
21 6 13 10 15 9 10 -10 -4 -13 -3 -25 1 -27 4 -3 8 6 9 19 2 28 -22 50 -45 41
-10 -4 -14 -4 -10 0 4 4 2 13 -4 21 -6 7 -8 13 -3 13 5 0 2 4 -6 10 -20 13 -7
22 34 23 20 1 36 5 36 9 0 14 54 -4 83 -29z m1477 18 c0 -12 -20 -25 -27 -18
-7 7 6 27 18 27 5 0 9 -4 9 -9z m33 -44 c-22 -58 -26 -59 -18 -7 9 53 13 62
25 55 5 -3 2 -24 -7 -48z m-95 -30 c2 -10 -3 -17 -12 -17 -9 0 -16 2 -16 4 0
2 -3 12 -6 21 -5 13 -2 16 12 13 10 -2 20 -11 22 -21z m-2096 -19 c-7 -7 -12
-8 -12 -2 0 14 12 26 19 19 2 -3 -1 -11 -7 -17z m484 -6 c-3 -6 -14 -9 -24 -7
-9 2 -21 4 -27 4 -5 1 -3 5 5 11 9 6 20 5 29 -3 12 -10 14 -9 7 8 -5 15 -4 17
5 8 6 -6 8 -16 5 -21z m1624 -18 c0 -8 -4 -12 -10 -9 -5 3 -10 10 -10 16 0 5
5 9 10 9 6 0 10 -7 10 -16z m-2160 -4 c0 -5 -7 -10 -16 -10 -8 0 -12 5 -9 10
3 6 10 10 16 10 5 0 9 -4 9 -10z m2206 -36 c-4 -9 -9 -15 -11 -12 -3 3 -3 13
1 22 4 9 9 15 11 12 3 -3 3 -13 -1 -22z m-2276 -29 c0 -8 -4 -15 -10 -15 -5 0
-10 7 -10 15 0 8 5 15 10 15 6 0 10 -7 10 -15z m2076 -92 c-4 -16 -8 -35 -10
-43 -2 -8 2 -18 8 -22 8 -6 6 -11 -4 -18 -12 -8 -12 -10 -1 -10 10 0 11 -3 2
-13 -6 -8 -8 -17 -4 -20 3 -4 1 -7 -5 -7 -13 0 -13 0 -17 48 -1 17 -8 38 -14
45 -13 16 -5 27 21 27 23 0 24 27 1 33 -13 3 -11 5 6 6 21 1 23 -2 17 -26z
m-1871 -13 c4 -19 11 -28 18 -23 7 4 6 -1 -2 -10 -12 -16 -9 -19 15 -16 4 0
10 -5 14 -11 4 -7 28 -14 53 -17 30 -4 54 -14 73 -32 39 -36 74 -54 74 -38 0
7 5 4 11 -5 8 -15 39 -26 39 -14 0 20 -25 66 -36 66 -8 0 -14 7 -14 15 0 8 -4
15 -10 15 -5 0 -10 9 -10 21 0 11 4 18 9 14 5 -3 13 4 16 16 4 12 13 18 20 15
8 -3 16 0 19 7 2 7 5 -1 6 -18 1 -28 1 -29 13 -10 11 19 47 24 47 6 0 -8 58
-6 120 4 51 9 155 16 258 18 54 0 76 -3 83 -14 5 -8 9 -9 9 -3 0 8 12 7 41 -2
23 -8 50 -12 60 -9 10 3 27 1 38 -4 14 -8 20 -8 23 1 3 7 14 6 38 -5 19 -9 46
-17 60 -19 17 -2 26 -10 28 -25 2 -14 8 -20 18 -16 8 3 14 -1 14 -10 0 -14 3
-14 28 -1 16 8 39 28 52 44 19 25 30 30 59 29 20 0 46 2 58 4 27 7 69 -28 65
-53 -2 -14 2 -17 18 -13 11 3 20 0 20 -6 0 -6 7 -11 16 -11 8 0 13 -4 10 -9
-3 -5 1 -14 9 -21 8 -7 15 -18 15 -25 0 -6 9 -20 21 -31 20 -18 20 -18 14 9
-8 30 1 34 29 12 18 -14 19 -16 2 -34 -20 -22 -7 -36 24 -26 14 5 20 2 20 -9
0 -9 -9 -16 -20 -16 -22 0 -25 -12 -10 -40 7 -13 6 -21 -5 -30 -8 -7 -15 -20
-15 -28 0 -12 -3 -13 -12 -4 -19 19 -27 14 -26 -16 1 -15 -4 -37 -10 -49 -6
-11 -9 -23 -6 -26 13 -13 -7 -44 -29 -43 -16 1 -23 -6 -26 -24 -1 -14 -8 -28
-15 -32 -6 -4 -12 -18 -12 -30 -1 -13 -2 -34 -3 -48 -2 -38 -17 -58 -33 -42
-18 18 -28 15 -28 -9 0 -11 -13 -33 -30 -47 -16 -15 -30 -31 -30 -38 0 -6 -11
-17 -25 -24 -16 -9 -25 -22 -25 -38 0 -18 -4 -23 -16 -18 -13 5 -15 2 -11 -15
4 -14 -2 -27 -19 -42 -13 -11 -25 -30 -25 -41 -1 -12 -5 -6 -9 14 -5 24 -8 28
-9 12 -1 -16 -5 -21 -13 -16 -7 5 -21 9 -31 9 -9 1 -24 10 -32 21 -13 17 -14
17 -15 2 0 -22 -30 -24 -30 -3 0 8 -5 15 -11 15 -14 0 -69 -32 -69 -41 0 -4
-11 -10 -24 -13 -14 -3 -32 -14 -42 -23 -24 -24 -44 -25 -44 -2 0 22 -4 23
-31 8 -15 -7 -24 -7 -35 1 -11 10 -15 9 -20 -4 -4 -10 -18 -16 -35 -16 -16 0
-29 -5 -29 -11 0 -6 -6 -9 -12 -6 -21 7 -48 -12 -48 -33 0 -11 -4 -20 -10 -20
-5 0 -10 4 -10 9 0 13 -53 21 -64 10 -15 -14 -26 -11 -26 7 0 8 -5 12 -10 9
-14 -9 -47 33 -56 69 -4 21 -8 25 -15 15 -6 -11 -9 -10 -15 4 -3 9 -10 14 -15
11 -5 -3 -8 -2 -7 3 4 12 -52 77 -83 97 -15 9 -37 19 -49 21 -12 2 -33 16 -47
30 -18 18 -36 25 -63 25 -28 0 -45 7 -66 29 -16 16 -40 31 -54 33 -14 2 -29
13 -35 25 -5 12 -18 23 -29 25 -10 2 -20 12 -22 22 -1 11 -12 32 -23 47 -12
16 -21 43 -21 62 0 21 -8 41 -20 52 -11 10 -20 26 -20 36 0 10 -4 21 -10 24
-5 3 -10 15 -10 25 0 10 -8 21 -18 24 -14 5 -18 17 -18 56 -1 27 3 47 7 44 5
-3 9 0 9 5 0 6 7 11 15 11 18 0 20 27 3 33 -10 3 -10 11 0 40 7 20 10 41 7 47
-3 5 -1 10 4 10 6 0 11 6 11 14 0 22 87 105 112 106 3 0 9 -14 13 -30z m-177
-38 c-2 -10 -11 -16 -21 -14 -9 2 -17 -3 -17 -10 0 -9 -3 -9 -12 0 -15 15 3
37 32 39 15 1 20 -3 18 -15z m1809 -24 c-3 -8 -6 -5 -6 6 -1 11 2 17 5 13 3
-3 4 -12 1 -19z m1478 -54 c397 -124 508 -166 715 -269 160 -80 187 -95 289
-164 46 -31 96 -64 112 -74 16 -11 29 -23 29 -28 0 -5 -21 5 -47 21 -26 17
-65 33 -86 37 -20 3 -40 10 -43 14 -3 5 -14 9 -24 9 -11 0 -50 19 -87 41 -253
156 -499 259 -928 390 -93 29 -172 54 -174 55 -2 2 2 10 9 19 15 18 16 18 235
-51z m-3275 -94 c0 -5 -4 -10 -10 -10 -5 0 -10 5 -10 10 0 6 5 10 10 10 6 0
10 -4 10 -10z m-26 -35 c3 -8 1 -15 -4 -15 -6 0 -10 7 -10 15 0 8 2 15 4 15 2
0 6 -7 10 -15z m-56 -42 c-4 -22 -28 -29 -28 -9 0 9 -7 16 -15 16 -13 0 -14 2
-3 14 16 18 51 2 46 -21z m27 -50 c-3 -21 -11 -42 -17 -48 -9 -10 -2 59 9 78
11 18 15 4 8 -30z m-30 8 c3 -5 1 -12 -5 -16 -5 -3 -10 1 -10 9 0 18 6 21 15
7z m-65 -81 c0 -5 -5 -10 -11 -10 -5 0 -7 5 -4 10 3 6 8 10 11 10 2 0 4 -4 4
-10z m80 -150 c0 -5 -4 -10 -10 -10 -5 0 -10 5 -10 10 0 6 5 10 10 10 6 0 10
-4 10 -10z m-110 -20 c0 -5 -5 -10 -11 -10 -5 0 -7 5 -4 10 3 6 8 10 11 10 2
0 4 -4 4 -10z m0 -40 c0 -11 -4 -20 -9 -20 -5 0 -7 9 -4 20 3 11 7 20 9 20 2
0 4 -9 4 -20z m40 -46 c0 -20 -7 -17 -20 6 -9 16 -8 18 5 14 8 -4 15 -12 15
-20z m120 -72 c-25 -4 -35 2 -26 17 5 7 13 7 27 -2 20 -12 20 -12 -1 -15z
m-32 -37 c-3 -3 -9 2 -12 12 -6 14 -5 15 5 6 7 -7 10 -15 7 -18z m52 -10 c0
-14 -30 -29 -39 -19 -3 4 0 9 7 11 6 3 12 11 12 19 0 9 5 12 10 9 6 -3 10 -12
10 -20z m280 -25 c0 -5 -5 -10 -11 -10 -5 0 -7 5 -4 10 3 6 8 10 11 10 2 0 4
-4 4 -10z m-232 -105 c-2 -5 -8 -10 -15 -11 -6 -1 -9 4 -6 12 6 16 27 15 21
-1z m-108 -19 c0 -3 -4 -8 -10 -11 -5 -3 -10 -1 -10 4 0 6 5 11 10 11 6 0 10
-2 10 -4z m91 -22 c2 3 9 -6 16 -20 6 -13 7 -24 2 -24 -5 0 -12 7 -15 15 -4 9
-12 14 -18 13 -12 -3 -16 3 -16 23 0 8 4 9 13 0 8 -6 16 -9 18 -7z m-86 -14
c-3 -5 -11 -10 -16 -10 -6 0 -7 5 -4 10 3 6 11 10 16 10 6 0 7 -4 4 -10z m675
-20 c0 -5 -5 -10 -11 -10 -5 0 -7 5 -4 10 3 6 8 10 11 10 2 0 4 -4 4 -10z
m-606 -32 c5 -22 -12 -35 -20 -14 -6 15 -44 18 -44 4 0 -4 -9 -8 -20 -8 -14 0
-20 -7 -20 -21 0 -16 4 -19 18 -14 42 18 60 17 72 -5 6 -12 9 -28 6 -36 -3 -8
-1 -14 4 -14 6 0 10 5 10 10 0 6 5 10 10 10 24 0 7 -29 -20 -35 -16 -4 -28
-12 -27 -18 1 -6 -9 -13 -22 -15 -19 -3 -22 0 -18 13 4 9 3 14 -1 11 -5 -3
-19 2 -31 10 -16 11 -20 22 -15 36 5 16 3 20 -9 15 -9 -3 -17 1 -20 12 -2 11
-18 21 -37 25 -32 6 -32 7 -14 20 13 10 23 11 31 4 14 -11 73 7 73 23 0 5 20
7 44 6 33 -1 46 -7 50 -19z m96 2 c0 -5 -4 -10 -10 -10 -5 0 -10 5 -10 10 0 6
5 10 10 10 6 0 10 -4 10 -10z m130 -10 c0 -14 -17 -21 -34 -14 -24 9 -19 19 9
20 14 1 25 -2 25 -6z m-53 -72 c-3 -8 -6 -5 -6 6 -1 11 2 17 5 13 3 -3 4 -12
1 -19z m-155 -98 c-3 -20 0 -22 22 -18 18 4 26 1 26 -8 0 -9 -10 -12 -30 -10
-17 2 -30 -1 -30 -7 0 -8 -3 -8 -10 -1 -13 13 -1 76 14 71 6 -2 9 -14 8 -27z
m-102 16 c0 -3 -4 -8 -10 -11 -5 -3 -10 -1 -10 4 0 6 5 11 10 11 6 0 10 -2 10
-4z m35 -28 c-11 -6 -22 -14 -25 -17 -3 -3 -18 -17 -33 -30 -20 -19 -27 -21
-27 -9 0 17 66 67 90 67 10 0 9 -3 -5 -11z m-105 -17 c0 -6 -4 -13 -10 -16 -5
-3 -10 1 -10 9 0 9 5 16 10 16 6 0 10 -4 10 -9z m330 -1 c0 -5 -4 -10 -10 -10
-5 0 -10 5 -10 10 0 6 5 10 10 10 6 0 10 -4 10 -10z m-145 -86 c-24 -35 -25
-35 -25 -12 0 14 7 31 15 38 8 7 15 22 16 34 0 21 0 21 9 -2 7 -17 4 -30 -15
-58z m108 44 c-4 -7 -8 -18 -9 -25 -3 -16 -42 -58 -49 -51 -3 3 1 18 10 34 8
16 15 22 16 14 0 -8 5 -3 11 13 5 15 14 27 19 27 6 0 7 -6 2 -12z m53 -60
c-15 -50 -17 -53 -26 -38 -8 13 -10 12 -10 -2 0 -10 -7 -18 -15 -18 -20 0 -19
5 7 40 22 30 51 41 44 18z m-36 -72 c0 -11 -19 -15 -25 -6 -3 5 1 10 9 10 9 0
16 -2 16 -4z m310 -245 c0 -5 -7 -12 -16 -15 -14 -5 -15 -4 -4 9 14 17 20 19
20 6z m133 -11 c-7 -26 -19 -34 -29 -19 -4 7 -3 9 3 6 6 -4 13 2 16 13 3 11 7
20 10 20 3 0 3 -9 0 -20z m-63 -25 c0 -5 -5 -3 -10 5 -5 8 -10 20 -10 25 0 6
5 3 10 -5 5 -8 10 -19 10 -25z"/>
<path d="M2310 5780 c-13 -8 -12 -10 3 -10 9 0 17 5 17 10 0 12 -1 12 -20 0z"/>
<path d="M2340 5786 c0 -2 8 -10 18 -17 15 -13 16 -12 3 4 -13 16 -21 21 -21
13z"/>
<path d="M4543 5294 c-18 -19 -17 -20 27 -20 22 0 40 3 40 8 0 4 -11 8 -24 8
-13 0 -26 4 -28 9 -1 5 -9 3 -15 -5z"/>
<path d="M4286 5251 c2 -18 9 -40 15 -49 9 -15 10 -15 5 -1 -3 12 3 18 23 22
35 7 73 -2 64 -16 -3 -6 -1 -7 6 -3 9 6 9 11 1 21 -9 11 -2 15 37 20 76 10 84
15 16 10 -46 -3 -63 -1 -63 8 0 8 -3 7 -9 -3 -6 -8 -7 -18 -5 -22 3 -4 -7 -3
-23 3 -15 5 -31 16 -35 22 -6 9 -8 9 -8 0 0 -7 8 -16 18 -22 15 -9 15 -10 -5
-8 -12 0 -20 4 -18 8 3 3 -2 14 -9 25 -13 17 -14 15 -10 -15z"/>
<path d="M4505 5241 l-30 -7 25 -7 c38 -10 50 -8 50 8 0 8 -3 14 -7 14 -5 -1
-21 -4 -38 -8z"/>
<path d="M4560 5231 c0 -5 5 -13 10 -16 6 -3 10 -2 10 4 0 5 -4 13 -10 16 -5
3 -10 2 -10 -4z"/>
<path d="M4406 5184 c-3 -7 2 -10 15 -7 22 6 26 20 4 20 -8 0 -16 -6 -19 -13z"/>
<path d="M4067 2356 c-3 -8 -2 -18 3 -21 13 -8 20 9 11 24 -6 10 -10 9 -14 -3z"/>
<path d="M3835 2180 c-3 -5 1 -10 9 -10 9 0 16 5 16 10 0 6 -4 10 -9 10 -6 0
-13 -4 -16 -10z"/>
<path d="M3780 1897 c0 -21 18 -31 63 -34 62 -4 42 30 -25 42 -31 6 -38 4 -38
-8z"/>
<path d="M4945 7210 c-13 -21 16 -37 72 -43 42 -4 59 -2 67 8 6 7 20 15 31 17
16 2 19 -2 17 -24 -2 -24 1 -28 23 -28 30 0 31 8 8 48 -15 26 -23 30 -59 30
-34 0 -43 -4 -47 -19 -6 -21 -6 -21 -64 9 -28 15 -40 15 -48 2z"/>
<path d="M7810 7201 c0 -11 -4 -23 -10 -26 -12 -7 -14 -35 -2 -35 8 0 42 57
42 71 0 5 -7 9 -15 9 -8 0 -15 -9 -15 -19z"/>
<path d="M5235 7180 c3 -5 10 -10 16 -10 5 0 9 5 9 10 0 6 -7 10 -16 10 -8 0
-12 -4 -9 -10z"/>
<path d="M7355 7180 c-3 -6 1 -7 9 -4 18 7 21 14 7 14 -6 0 -13 -4 -16 -10z"/>
<path d="M5642 7106 c-16 -45 2 -90 23 -56 3 6 1 10 -4 10 -14 0 -14 47 -1 55
12 7 13 25 2 25 -4 0 -13 -15 -20 -34z"/>
<path d="M1560 7112 c0 -14 11 -21 26 -15 21 8 17 23 -6 23 -11 0 -20 -4 -20
-8z"/>
<path d="M5337 7103 c-4 -3 -7 -15 -7 -25 0 -13 8 -18 30 -18 17 0 30 -4 30
-10 0 -5 7 -10 15 -10 8 0 15 9 15 19 0 32 -62 65 -83 44z"/>
<path d="M5875 7087 c-4 -10 -5 -21 -1 -24 10 -10 18 4 13 24 -4 17 -4 17 -12
0z"/>
<path d="M6080 7086 c0 -9 5 -16 10 -16 6 0 10 4 10 9 0 6 -4 13 -10 16 -5 3
-10 -1 -10 -9z"/>
<path d="M6161 7082 c0 -7 -14 -18 -31 -23 -39 -14 -39 -29 0 -29 32 0 45 16
37 47 -3 10 -5 12 -6 5z"/>
<path d="M1500 7070 c0 -5 9 -10 20 -10 11 0 20 5 20 10 0 6 -9 10 -20 10 -11
0 -20 -4 -20 -10z"/>
<path d="M6237 7074 c-16 -16 -6 -35 16 -32 12 2 22 10 22 18 0 16 -26 25 -38
14z"/>
<path d="M6626 7072 c-3 -5 1 -9 9 -9 8 0 15 4 15 9 0 4 -4 8 -9 8 -6 0 -12
-4 -15 -8z"/>
<path d="M5996 7045 c-11 -8 -28 -15 -37 -15 -10 0 -27 -12 -40 -27 -14 -18
-23 -23 -26 -15 -6 17 -23 15 -23 -2 0 -8 8 -28 18 -46 16 -29 19 -31 63 -25
43 6 47 5 53 -18 5 -23 12 -26 81 -32 45 -5 75 -12 75 -19 -1 -22 -28 -46 -52
-46 -14 0 -36 -8 -49 -18 -13 -10 -32 -21 -41 -25 -24 -9 -23 -24 2 -32 15 -5
26 0 40 17 11 13 19 19 20 14 0 -6 6 -2 13 8 11 15 18 16 33 8 14 -7 34 -7 67
1 44 10 65 27 32 27 -8 0 -24 5 -34 12 -15 9 -17 16 -10 31 8 14 6 23 -6 37
-13 14 -14 23 -6 39 18 32 14 61 -8 61 -11 0 -22 -3 -24 -7 -3 -5 -28 -6 -57
-4 -44 3 -49 5 -34 16 10 7 15 19 11 29 -4 9 -2 16 3 16 6 0 10 7 10 15 0 20
-48 19 -74 0z m164 -121 c0 -24 -46 -39 -76 -25 -30 13 -26 21 19 36 37 13 57
9 57 -11z"/>
<path d="M1460 7030 c0 -5 5 -10 11 -10 7 0 17 -7 24 -17 15 -20 48 -10 43 14
-2 12 -15 18 -41 20 -20 2 -37 -1 -37 -7z"/>
<path d="M5673 7015 c-18 -19 -16 -32 4 -39 21 -8 36 6 31 30 -4 23 -20 27
-35 9z"/>
<path d="M6088 7013 c7 -3 16 -2 19 1 4 3 -2 6 -13 5 -11 0 -14 -3 -6 -6z"/>
<path d="M1390 6996 c0 -14 29 -31 38 -22 2 3 2 12 -1 21 -8 19 -37 20 -37 1z"/>
<path d="M6430 6989 c-10 -17 -9 -23 1 -30 22 -14 49 -10 49 6 0 8 5 15 12 15
17 0 -2 16 -29 24 -16 5 -25 1 -33 -15z"/>
<path d="M7500 7000 c0 -6 11 -8 28 -4 39 10 40 14 4 14 -18 0 -32 -5 -32 -10z"/>
<path d="M7578 7003 c7 -3 16 -2 19 1 4 3 -2 6 -13 5 -11 0 -14 -3 -6 -6z"/>
<path d="M6528 6983 c6 -2 18 -2 25 0 6 3 1 5 -13 5 -14 0 -19 -2 -12 -5z"/>
<path d="M1339 6951 c12 -8 51 -4 51 5 0 2 -15 4 -32 4 -23 0 -29 -3 -19 -9z"/>
<path d="M6200 6945 c-15 -18 -4 -75 15 -75 7 0 16 -8 18 -17 3 -10 5 -1 6 20
1 21 -4 37 -10 37 -7 0 -9 10 -5 25 7 28 -5 33 -24 10z"/>
<path d="M5745 6942 c-3 -3 -5 -9 -5 -14 0 -11 47 -10 54 1 6 9 -40 22 -49 13z"/>
<path d="M1241 6922 c-1 -19 28 -72 39 -72 6 0 10 6 10 14 0 25 -12 46 -25 46
-7 0 -16 6 -18 13 -4 9 -6 9 -6 -1z"/>
<path d="M1300 6920 c0 -5 5 -10 10 -10 6 0 10 5 10 10 0 6 -4 10 -10 10 -5 0
-10 -4 -10 -10z"/>
<path d="M1357 6913 c-4 -3 -7 -16 -6 -27 0 -19 1 -19 10 3 10 24 8 36 -4 24z"/>
<path d="M6253 6895 c-3 -9 -3 -19 1 -22 3 -4 6 1 6 10 0 8 6 18 13 20 9 4 9
6 -1 6 -7 1 -15 -6 -19 -14z"/>
<path d="M5768 6893 c7 -3 16 -2 19 1 4 3 -2 6 -13 5 -11 0 -14 -3 -6 -6z"/>
<path d="M5899 6891 c-3 -8 -3 -27 -1 -43 4 -26 8 -28 48 -28 33 0 46 5 54 20
9 17 8 20 -13 20 -12 0 -28 -5 -34 -11 -18 -18 -41 -3 -45 28 -2 16 -6 22 -9
14z"/>
<path d="M6402 6871 c13 -14 24 -28 26 -30 7 -13 23 20 18 37 -5 15 -15 20
-37 20 l-30 -1 23 -26z"/>
<path d="M6980 6890 c0 -5 7 -10 15 -10 8 0 15 5 15 10 0 6 -7 10 -15 10 -8 0
-15 -4 -15 -10z"/>
<path d="M5830 6871 c0 -11 26 -22 34 -14 12 12 5 23 -14 23 -11 0 -20 -4 -20
-9z"/>
<path d="M5920 6870 c0 -5 5 -10 10 -10 6 0 10 5 10 10 0 6 -4 10 -10 10 -5 0
-10 -4 -10 -10z"/>
<path d="M6343 6862 c-30 -4 -29 -16 1 -30 20 -9 25 -8 30 5 8 21 -3 30 -31
25z"/>
<path d="M5620 6810 c0 -5 9 -10 20 -10 11 0 20 5 20 10 0 6 -9 10 -20 10 -11
0 -20 -4 -20 -10z"/>
<path d="M6020 6810 c0 -5 6 -10 14 -10 8 0 18 5 21 10 3 6 -3 10 -14 10 -12
0 -21 -4 -21 -10z"/>
<path d="M5680 6770 c0 -13 5 -20 13 -17 6 2 12 10 12 17 0 7 -6 15 -12 18 -8
2 -13 -5 -13 -18z"/>
<path d="M5885 6780 c-4 -6 7 -11 24 -12 17 -1 39 -2 48 -2 9 -1 18 5 21 12 5
15 -84 17 -93 2z"/>
<path d="M5953 6743 c9 -2 23 -2 30 0 6 3 -1 5 -18 5 -16 0 -22 -2 -12 -5z"/>
<path d="M5790 6729 c0 -5 5 -7 10 -4 6 3 10 8 10 11 0 2 -4 4 -10 4 -5 0 -10
-5 -10 -11z"/>
<path d="M5827 6706 c-8 -20 2 -46 17 -46 28 0 56 14 56 26 0 8 -10 14 -23 14
-13 0 -28 5 -34 11 -7 7 -12 6 -16 -5z"/>
<path d="M5757 6683 c-4 -3 -7 -11 -7 -17 0 -6 5 -5 12 2 6 6 9 14 7 17 -3 3
-9 2 -12 -2z"/>
<path d="M5378 6583 c7 -3 16 -2 19 1 4 3 -2 6 -13 5 -11 0 -14 -3 -6 -6z"/>
<path d="M5666 6565 c-3 -8 -12 -15 -19 -15 -8 0 -20 -7 -27 -15 -11 -13 -7
-15 27 -15 42 0 63 14 63 42 0 22 -35 25 -44 3z"/>
<path d="M6148 6573 c7 -3 16 -2 19 1 4 3 -2 6 -13 5 -11 0 -14 -3 -6 -6z"/>
<path d="M5869 6535 c-9 -45 -4 -50 53 -53 49 -3 59 0 70 18 7 11 19 20 26 20
7 0 11 4 8 8 -5 9 -155 16 -157 7z"/>
<path d="M5671 6452 c-16 -29 -14 -32 14 -32 28 0 31 8 11 35 -13 18 -14 18
-25 -3z"/>
<path d="M1040 6420 c0 -5 7 -10 15 -10 8 0 15 5 15 10 0 6 -7 10 -15 10 -8 0
-15 -4 -15 -10z"/>
<path d="M5744 6389 c-3 -6 -1 -16 5 -22 8 -8 11 -5 11 11 0 24 -5 28 -16 11z"/>
<path d="M1006 6381 c-4 -5 -2 -12 3 -15 5 -4 12 -2 15 3 4 5 2 12 -3 15 -5 4
-12 2 -15 -3z"/>
<path d="M1018 6333 c7 -3 16 -2 19 1 4 3 -2 6 -13 5 -11 0 -14 -3 -6 -6z"/>
<path d="M5746 6272 c-3 -5 1 -9 9 -9 8 0 12 4 9 9 -3 4 -7 8 -9 8 -2 0 -6 -4
-9 -8z"/>
<path d="M5825 6150 c-3 -5 -1 -10 4 -10 6 0 11 5 11 10 0 6 -2 10 -4 10 -3 0
-8 -4 -11 -10z"/>
<path d="M5820 6091 c0 -6 5 -13 10 -16 6 -3 10 1 10 9 0 9 -4 16 -10 16 -5 0
-10 -4 -10 -9z"/>
<path d="M660 6010 c0 -5 5 -10 10 -10 6 0 10 5 10 10 0 6 -4 10 -10 10 -5 0
-10 -4 -10 -10z"/>
<path d="M5917 6000 c3 -11 9 -17 14 -14 14 8 10 34 -5 34 -9 0 -12 -7 -9 -20z"/>
<path d="M5946 5963 c-11 -11 -6 -23 9 -23 8 0 15 4 15 9 0 13 -16 22 -24 14z"/>
<path d="M720 5920 c0 -5 5 -10 11 -10 5 0 7 5 4 10 -3 6 -8 10 -11 10 -2 0
-4 -4 -4 -10z"/>
<path d="M6080 5895 c0 -8 7 -15 15 -15 9 0 12 6 9 15 -4 8 -10 15 -15 15 -5
0 -9 -7 -9 -15z"/>
<path d="M6226 5895 c-10 -26 -7 -35 9 -35 17 0 19 18 6 38 -7 11 -10 10 -15
-3z"/>
<path d="M15 5891 c17 -8 18 -10 3 -10 -16 -1 -18 -11 -18 -76 l0 -75 42 -26
c24 -14 56 -35 72 -47 16 -11 35 -20 42 -20 7 0 11 -11 9 -26 -4 -45 -17 -106
-25 -116 -5 -5 -18 -39 -31 -75 -12 -36 -41 -106 -65 -157 l-43 -91 -1 -458 0
-458 148 294 c82 162 186 366 232 453 126 242 170 398 157 563 -6 77 -1 117
14 108 5 -3 7 5 5 18 -3 13 -5 29 -5 36 -1 7 -6 10 -12 7 -6 -4 -9 -1 -7 7 3
16 -48 68 -68 68 -7 0 -19 6 -26 13 -19 19 -69 35 -165 51 -101 18 -286 30
-258 17z m225 -235 c-7 -7 -10 1 -9 25 0 32 1 33 10 10 6 -16 6 -28 -1 -35z
m290 11 c0 -5 -4 -5 -10 -2 -5 3 -10 14 -10 23 0 15 2 15 10 2 5 -8 10 -19 10
-23z m-270 -80 c0 -16 -4 -26 -10 -22 -5 3 -10 23 -10 43 0 28 3 33 10 22 5
-8 10 -28 10 -43z m-113 -399 c-3 -8 -6 -5 -6 6 -1 11 2 17 5 13 3 -3 4 -12 1
-19z m-18 -64 c-5 -6 -6 -14 -2 -18 4 -4 1 -5 -7 -1 -10 3 -20 -5 -29 -25 -7
-17 -15 -29 -18 -27 -9 9 31 77 46 78 10 0 11 3 4 5 -7 3 -9 13 -6 21 6 14 7
14 14 -3 3 -10 3 -24 -2 -30z"/>
<path d="M1885 5550 c3 -5 14 -10 23 -10 15 0 15 2 2 10 -20 13 -33 13 -25 0z"/>
<path d="M5208 5133 c6 -2 18 -2 25 0 6 3 1 5 -13 5 -14 0 -19 -2 -12 -5z"/>
<path d="M5280 5060 c0 -5 9 -10 21 -10 11 0 17 5 14 10 -3 6 -13 10 -21 10
-8 0 -14 -4 -14 -10z"/>
<path d="M4010 5051 c0 -6 4 -13 10 -16 6 -3 7 1 4 9 -7 18 -14 21 -14 7z"/>
<path d="M5119 5051 c11 -7 11 -9 0 -13 -8 -3 -10 -9 -6 -14 4 -5 12 -2 17 6
14 22 12 30 -7 30 -14 0 -15 -2 -4 -9z"/>
<path d="M3987 5037 c-3 -8 -1 -20 4 -28 6 -10 9 -7 9 14 0 29 -5 35 -13 14z"/>
<path d="M4066 5003 c-6 -14 -5 -15 5 -6 7 7 10 15 7 18 -3 3 -9 -2 -12 -12z"/>
<path d="M4147 4930 c-3 -11 -2 -22 2 -24 4 -3 8 6 9 20 2 29 -4 31 -11 4z"/>
<path d="M4870 4885 c0 -5 5 -17 10 -25 5 -8 10 -10 10 -5 0 6 -5 17 -10 25
-5 8 -10 11 -10 5z"/>
<path d="M5120 4841 c0 -6 4 -13 10 -16 6 -3 7 1 4 9 -7 18 -14 21 -14 7z"/>
<path d="M5110 4620 c-9 -6 -10 -10 -3 -10 6 0 15 5 18 10 8 12 4 12 -15 0z"/>
<path d="M727 4493 c-2 -5 -2 -18 -1 -30 0 -13 -3 -23 -7 -23 -5 0 -9 -5 -9
-12 0 -27 25 14 26 42 1 30 -1 37 -9 23z"/>
<path d="M2456 4425 c4 -8 10 -15 15 -15 4 0 6 7 3 15 -4 8 -10 15 -15 15 -4
0 -6 -7 -3 -15z"/>
<path d="M3730 4350 c0 -5 5 -10 11 -10 5 0 7 5 4 10 -3 6 -8 10 -11 10 -2 0
-4 -4 -4 -10z"/>
<path d="M1429 4343 c0 -4 -2 -18 -3 -30 -1 -12 1 -20 6 -17 5 4 7 12 4 19 -3
8 0 15 7 18 8 2 8 5 -1 11 -7 4 -12 4 -13 -1z"/>
<path d="M1476 4335 c4 -8 10 -15 15 -15 4 0 6 7 3 15 -4 8 -10 15 -15 15 -4
0 -6 -7 -3 -15z"/>
<path d="M3639 4338 c0 -7 -2 -23 -5 -35 -3 -20 0 -23 24 -22 15 1 20 3 10 6
-9 2 -19 10 -22 18 -4 11 0 12 19 5 32 -12 32 3 0 24 -19 12 -25 13 -26 4z"/>
<path d="M2054 4283 c-25 -58 -30 -211 -10 -272 9 -27 16 -57 16 -65 0 -23 17
-20 23 4 3 12 11 18 20 15 15 -6 14 -9 53 188 16 85 15 89 -34 145 -28 32 -51
28 -68 -15z"/>
<path d="M2670 4294 c-19 -2 -59 -7 -88 -10 -29 -3 -50 -9 -47 -14 3 -4 -4
-19 -15 -31 -11 -13 -19 -20 -20 -16 0 5 7 15 15 24 23 23 9 32 -35 22 -22 -5
-52 -6 -67 -3 -21 6 -25 4 -20 -9 4 -10 -1 -18 -13 -22 -25 -8 -78 -64 -107
-113 -60 -99 -64 -111 -51 -135 7 -12 13 -24 13 -27 13 -69 14 -90 6 -111 -7
-20 -6 -26 5 -26 9 0 12 7 8 19 -3 10 -1 18 5 18 6 0 9 12 7 28 -2 15 -1 19 1
10 2 -10 7 -18 11 -18 4 0 13 -4 21 -9 12 -7 12 -13 0 -40 -8 -17 -18 -31 -22
-31 -5 0 -6 -4 -2 -9 3 -5 21 -8 40 -6 19 2 35 -1 35 -6 0 -5 21 -9 46 -9 45
0 46 0 39 -30 -5 -22 -3 -32 9 -36 9 -3 14 -9 12 -13 -7 -10 95 -117 140 -147
70 -48 123 -62 210 -54 43 4 90 3 104 -1 46 -14 278 -19 284 -6 3 8 5 8 5 -1
1 -10 6 -10 21 -2 22 12 27 1 8 -19 -11 -11 -9 -12 7 -3 33 17 142 127 191
194 52 71 96 153 114 215 12 40 11 45 -12 80 -41 60 -73 121 -68 127 3 3 22 1
43 -3 50 -12 49 6 -5 66 -95 103 -277 148 -633 157 -88 2 -176 2 -195 0z m434
-140 c3 -8 1 -24 -5 -36 -10 -19 -11 -19 -24 -1 -8 10 -15 26 -15 36 0 22 36
23 44 1z m-74 -37 c0 -14 -78 -43 -88 -33 -8 8 -5 10 86 45 1 1 2 -5 2 -12z
m310 -18 c0 -10 -4 -19 -10 -19 -5 0 -10 12 -10 26 0 14 4 23 10 19 6 -3 10
-15 10 -26z m-132 10 c-2 -6 -8 -10 -13 -10 -5 0 -11 4 -13 10 -2 6 4 11 13
11 9 0 15 -5 13 -11z m-124 -124 c-6 -16 -24 -21 -24 -7 0 11 11 22 21 22 5 0
6 -7 3 -15z"/>
<path d="M3400 4240 c64 -30 127 -85 152 -133 l21 -42 9 32 c10 39 42 58 118
69 71 10 98 9 133 -5 16 -6 33 -11 38 -11 26 0 72 -34 83 -62 l13 -30 32 45
c37 50 106 93 185 113 46 12 23 13 -214 12 -147 0 -294 4 -330 10 -36 6 -114
14 -175 17 l-110 5 45 -20z"/>
<path d="M4410 4223 c-185 -13 -294 -45 -366 -106 -42 -35 -79 -134 -78 -207
1 -45 9 -71 42 -136 23 -44 42 -84 42 -90 0 -19 100 -158 152 -211 50 -50 66
-59 191 -98 48 -15 66 -17 110 -8 101 21 173 33 230 39 l57 5 0 60 c0 44 -4
61 -15 65 -8 4 -15 15 -15 25 0 11 -26 59 -59 107 -116 174 -199 317 -188 328
3 3 38 -9 79 -27 40 -17 93 -39 118 -49 25 -9 57 -22 71 -27 14 -6 45 -16 70
-23 24 -7 52 -16 61 -21 29 -15 38 -10 38 20 0 35 -14 47 -65 56 -55 10 -75
22 -75 45 0 23 3 24 70 8 39 -9 60 -21 90 -55 22 -23 40 -51 40 -62 0 -11 5
-23 10 -26 17 -11 11 -24 -15 -31 -30 -7 -32 -25 -5 -49 11 -10 17 -22 13 -28
-3 -5 2 -16 11 -23 16 -11 14 -15 -23 -38 -23 -15 -41 -30 -41 -35 0 -4 26 -4
58 1 31 5 77 6 102 2 145 -22 176 -22 197 -1 15 15 17 15 29 -1 13 -16 13 -16
14 0 0 9 -5 20 -11 23 -7 5 -5 13 7 26 13 15 16 37 15 113 -3 148 -24 200
-120 293 -54 53 -112 75 -270 102 -99 18 -468 45 -516 39 -5 -1 -30 -3 -55 -5z
m-225 -132 c3 -10 1 -31 -6 -47 l-11 -29 -18 35 c-11 19 -19 41 -20 48 0 20
48 14 55 -7z m926 7 c1 -7 0 -23 0 -35 -3 -28 38 -43 51 -19 12 22 41 20 63
-4 21 -23 13 -39 -10 -20 -14 12 -20 7 -16 -14 3 -12 -20 -26 -41 -26 -10 0
-18 7 -18 16 0 14 -3 14 -15 4 -13 -10 -15 -9 -15 10 0 13 -5 20 -12 17 -7 -2
-25 6 -40 19 -15 12 -33 24 -40 27 -7 2 -9 8 -5 13 5 5 21 1 38 -8 29 -17 29
-17 29 7 0 26 29 37 31 13z m-1021 -47 c0 -11 -77 -31 -85 -22 -8 7 67 40 78
34 4 -2 7 -8 7 -12z m195 -29 c-8 -9 -25 20 -18 31 3 5 10 2 15 -7 6 -10 7
-20 3 -24z m145 2 c0 -13 -4 -24 -10 -24 -5 0 -10 14 -10 31 0 17 4 28 10 24
6 -3 10 -17 10 -31z m-297 -111 c-3 -9 -9 -11 -15 -5 -5 5 -6 17 -2 26 5 13 9
14 14 5 5 -7 6 -19 3 -26z"/>
<path d="M5701 4134 l-22 -16 22 -24 c19 -20 21 -30 16 -82 -6 -63 -40 -158
-55 -155 -5 1 -12 -62 -16 -144 -8 -156 -15 -182 -66 -237 -23 -24 -28 -37
-25 -70 3 -47 13 -76 26 -76 20 0 87 165 94 230 9 97 24 165 57 264 31 92 48
245 34 300 -7 30 -31 34 -65 10z"/>
<path d="M3685 4123 c-11 -2 -30 -6 -42 -8 -17 -4 -23 -15 -29 -53 -3 -26 -10
-51 -14 -57 -4 -5 -10 -37 -14 -69 -6 -54 -37 -143 -54 -156 -4 -3 -16 -15
-26 -27 -19 -23 -19 -23 3 -23 15 0 27 11 38 35 17 35 33 41 41 16 2 -7 -5
-15 -17 -18 -11 -3 -18 -9 -15 -14 10 -17 -7 -46 -46 -78 -37 -29 -40 -30 -40
-11 0 11 7 20 15 20 16 0 19 9 7 26 -4 6 -27 -20 -55 -63 -26 -41 -42 -71 -36
-67 7 4 10 1 7 -7 -3 -8 -13 -16 -24 -17 -21 -4 -115 -102 -108 -113 2 -4 -1
-11 -7 -15 -8 -4 -9 -3 -5 4 14 24 -11 11 -40 -19 -31 -33 -106 -84 -175 -120
-48 -24 -42 -32 28 -44 34 -5 41 -10 41 -28 -1 -12 -5 -27 -10 -33 -10 -14 -1
-41 17 -48 8 -3 17 3 20 15 4 10 11 19 16 19 5 0 9 8 9 19 0 10 22 40 50 67
27 27 50 58 50 68 0 23 41 86 55 86 6 0 18 9 28 20 21 25 49 27 40 3 -5 -13
-2 -15 15 -11 12 4 20 3 17 -1 -2 -5 4 -17 15 -28 10 -12 16 -25 12 -29 -4 -5
2 -2 12 6 13 10 17 10 12 3 -4 -7 -3 -13 2 -13 6 0 12 -10 15 -22 4 -13 12
-32 20 -42 14 -19 15 -18 38 5 13 13 24 27 24 32 0 4 5 6 10 5 6 -2 9 -6 7
-10 -1 -5 2 -8 8 -8 5 0 10 5 10 10 0 6 12 23 26 37 15 15 24 33 21 44 -3 10
1 20 9 23 13 5 11 35 -6 81 -5 14 -7 25 -5 25 3 0 -4 18 -15 40 -11 22 -18 40
-14 40 4 0 1 7 -6 15 -10 12 -7 19 14 38 14 13 26 29 26 36 0 6 5 11 10 11 6
0 10 4 10 9 0 14 51 66 61 64 5 -2 9 4 9 13 0 8 5 12 10 9 6 -3 10 -1 10 5 0
18 42 -9 47 -31 5 -18 33 -33 73 -38 6 0 10 -8 10 -17 0 -17 57 -104 68 -104
4 0 13 -12 19 -27 24 -57 59 -109 102 -150 42 -40 53 -47 66 -40 2 1 12 -8 20
-20 9 -13 23 -23 31 -23 25 0 18 15 -47 94 -25 30 -92 130 -115 171 -6 11 -17
20 -25 20 -8 0 -15 12 -16 30 -1 17 -14 62 -28 100 -24 63 -32 103 -51 252 -8
56 -30 73 -100 79 -33 2 -72 6 -89 8 -16 2 -39 2 -50 -1z m295 -386 c0 -5 -4
-5 -10 -2 -5 3 -10 14 -10 23 0 15 2 15 10 2 5 -8 10 -19 10 -23z m-520 -122
c0 -8 -4 -15 -10 -15 -5 0 -7 7 -4 15 4 8 8 15 10 15 2 0 4 -7 4 -15z m-30
-159 c0 -3 -4 -8 -10 -11 -5 -3 -10 -1 -10 4 0 6 5 11 10 11 6 0 10 -2 10 -4z"/>
<path d="M2074 3880 c31 -194 60 -290 88 -290 11 0 15 5 12 14 -3 8 -1 24 5
35 9 16 7 24 -8 38 -22 22 -40 74 -43 128 -2 44 -16 75 -35 75 -6 0 -14 6 -17
13 -3 6 -4 1 -2 -13z"/>
<path d="M2182 3820 c0 -14 2 -19 5 -12 2 6 2 18 0 25 -3 6 -5 1 -5 -13z"/>
<path d="M4980 3740 c0 -5 5 -10 10 -10 6 0 10 5 10 10 0 6 -4 10 -10 10 -5 0
-10 -4 -10 -10z"/>
<path d="M5520 3709 c-5 -126 -5 -168 -1 -186 6 -21 6 -21 37 7 40 35 48 60
29 86 -8 10 -15 26 -15 35 0 13 -50 71 -50 58z"/>
<path d="M1036 3602 c-3 -5 1 -9 9 -9 8 0 12 4 9 9 -3 4 -7 8 -9 8 -2 0 -6 -4
-9 -8z"/>
<path d="M1062 3230 c0 -14 2 -19 5 -12 2 6 2 18 0 25 -3 6 -5 1 -5 -13z"/>
<path d="M1021 3124 c0 -11 3 -14 6 -6 3 7 2 16 -1 19 -3 4 -6 -2 -5 -13z"/>
<path d="M3340 3000 c0 -5 4 -10 8 -10 5 0 28 -18 52 -41 32 -30 49 -40 66
-36 13 2 24 0 24 -4 0 -5 9 -9 21 -9 15 0 19 4 15 16 -3 9 -6 17 -6 19 0 2
-22 19 -49 39 -37 28 -58 36 -90 36 -22 0 -41 -4 -41 -10z"/>
<path d="M3997 2946 c-47 -17 -81 -46 -68 -59 11 -11 159 12 185 29 17 12 16
13 -12 28 -37 19 -55 19 -105 2z"/>
<path d="M1957 2446 c-195 -66 -260 -92 -238 -94 34 -4 97 15 359 107 96 34
176 61 178 61 3 0 2 5 -1 10 -3 6 -12 9 -18 9 -7 -1 -133 -42 -280 -93z"/>
<path d="M940 2480 c0 -5 5 -10 11 -10 5 0 7 5 4 10 -3 6 -8 10 -11 10 -2 0
-4 -4 -4 -10z"/>
<path d="M966 2451 c-3 -5 1 -11 9 -14 9 -4 12 -1 8 9 -6 16 -10 17 -17 5z"/>
<path d="M4900 2332 c0 -9 7 -25 14 -34 15 -20 41 -24 32 -5 -3 6 -9 20 -12
29 -8 24 -34 32 -34 10z"/>
<path d="M4866 2285 c-3 -8 -1 -15 4 -15 13 0 22 18 11 24 -5 3 -11 -1 -15 -9z"/>
<path d="M2767 2224 c-4 -4 -7 -14 -7 -23 0 -11 3 -12 11 -4 6 6 10 16 7 23
-2 6 -7 8 -11 4z"/>
<path d="M4800 2217 c0 -8 6 -14 14 -14 8 0 12 6 9 14 -3 7 -9 13 -14 13 -5 0
-9 -6 -9 -13z"/>
<path d="M919 2137 c10 -13 10 -17 1 -17 -10 0 -10 -3 0 -15 10 -12 9 -16 -2
-20 -8 -3 -15 -12 -16 -20 -1 -8 -3 -22 -4 -30 -1 -8 -3 -13 -6 -10 -2 2 -13
-6 -24 -18 l-19 -22 11 25 c11 24 10 24 -5 5 -8 -11 -13 -25 -11 -32 3 -7 -1
-10 -9 -6 -8 3 -12 10 -8 16 3 6 1 7 -6 3 -8 -6 -9 -12 -2 -20 8 -9 7 -13 -4
-13 -8 0 -12 4 -9 8 6 11 -31 30 -41 21 -5 -4 -5 -2 -1 5 3 6 1 15 -6 20 -25
15 -35 11 -31 -16 3 -23 2 -23 -6 -6 -8 17 -10 17 -10 3 -1 -9 -6 -20 -13 -24
-7 -5 -8 -3 -3 6 5 8 4 11 -3 6 -6 -4 -8 -14 -5 -24 6 -15 5 -16 -13 -2 -12 9
-15 9 -7 1 16 -19 -5 -64 -26 -56 -15 5 -15 4 0 -7 8 -7 18 -21 22 -31 4 -10
11 -15 17 -12 6 4 4 12 -5 21 -15 16 -11 39 5 29 4 -3 6 3 3 13 -6 23 22 49
33 31 4 -7 3 -9 -4 -5 -6 4 -11 -1 -11 -11 -1 -37 -7 -72 -14 -79 -11 -11 -9
-19 11 -42 10 -11 27 -33 38 -47 10 -15 29 -38 41 -53 12 -14 25 -39 28 -54 4
-15 11 -28 16 -28 6 0 8 -18 5 -41 -4 -33 -2 -40 9 -35 8 3 15 1 15 -5 0 -6 5
-7 12 -3 7 4 8 3 4 -4 -4 -7 -14 -12 -22 -12 -8 0 -14 -5 -14 -11 0 -5 5 -7
11 -3 8 5 10 -2 6 -21 -6 -35 1 -55 20 -55 8 0 11 -4 8 -10 -3 -5 -1 -10 5
-10 7 0 9 -12 6 -30 -2 -17 0 -28 5 -24 5 3 7 9 4 14 -3 5 -1 11 5 15 5 3 12
-5 15 -18 7 -27 41 -52 51 -36 3 6 -3 13 -15 16 -17 4 -20 10 -14 31 4 17 2
23 -5 18 -8 -5 -10 -1 -5 10 5 14 7 15 15 1 11 -20 38 -11 38 12 0 13 -2 13
-9 2 -6 -10 -10 -10 -16 -1 -4 6 -3 16 3 22 6 6 18 -2 33 -24 30 -43 46 -59
78 -80 39 -26 104 -84 199 -177 82 -80 87 -83 93 -60 6 22 7 21 8 -8 1 -17 5
-34 10 -37 5 -4 7 3 4 14 -4 16 -2 19 11 14 11 -4 15 -13 10 -26 -4 -14 -2
-18 5 -14 6 4 11 20 11 36 0 36 23 31 45 -9 11 -20 14 -22 15 -8 0 10 -11 29
-25 43 -14 14 -25 27 -25 29 0 2 -12 30 -26 61 -20 43 -24 65 -19 92 8 43 37
103 59 121 9 8 16 20 16 27 0 8 9 19 19 26 15 9 17 15 9 25 -8 10 -5 13 11 13
21 0 28 14 12 24 -9 6 15 66 25 66 3 0 2 -4 -1 -10 -3 -5 0 -7 8 -5 15 6 11
61 -6 72 -6 4 -8 -4 -3 -23 5 -24 4 -26 -5 -11 -6 10 -8 25 -5 33 6 17 -31
104 -45 104 -5 0 -8 6 -7 13 2 6 -3 11 -10 9 -8 -1 -11 2 -7 8 7 11 -12 50
-34 68 -9 8 -10 11 -3 7 10 -5 10 -1 0 19 -6 14 -15 26 -19 26 -4 0 -12 15
-19 34 -8 26 -16 34 -34 32 -12 0 -23 -7 -23 -14 0 -9 9 -12 24 -9 18 3 23 1
19 -10 -3 -8 -6 -17 -6 -19 0 -3 -14 5 -31 17 -21 15 -29 27 -26 40 3 11 1 17
-4 13 -5 -3 -9 0 -9 7 0 7 -11 0 -23 -15 l-24 -28 -13 31 c-7 18 -25 41 -41
52 l-29 20 -25 -25 c-14 -14 -25 -21 -25 -16 0 10 -19 8 -39 -4 -10 -6 -12 -5
-7 2 6 11 0 14 -20 11 -4 0 -11 5 -16 13 -8 10 -9 10 -5 -2 2 -8 11 -13 18
-12 8 2 10 0 6 -4 -12 -13 -37 -13 -34 -1 1 6 -8 16 -20 21 -12 6 -31 29 -43
53 -12 23 -27 46 -33 50 -7 4 -6 0 2 -10z m363 -179 c-7 -7 -10 -5 -7 8 5 29
6 30 12 16 3 -8 1 -18 -5 -24z m95 -60 c-3 -8 -6 -5 -6 6 -1 11 2 17 5 13 3
-3 4 -12 1 -19z m63 -92 c0 -3 -4 -8 -10 -11 -5 -3 -10 -1 -10 4 0 6 5 11 10
11 6 0 10 -2 10 -4z m-544 -338 c4 -6 3 -8 -4 -4 -5 3 -12 1 -14 -6 -2 -6 -10
-8 -16 -4 -7 4 -10 12 -7 17 8 13 32 11 41 -3z m394 -278 c0 -5 -5 -10 -11
-10 -5 0 -7 5 -4 10 3 6 8 10 11 10 2 0 4 -4 4 -10z m84 -40 c-5 -5 -10 3 -11
18 -1 22 0 24 9 8 6 -10 6 -22 2 -26z m44 -5 c-3 -3 -9 2 -12 12 -6 14 -5 15
5 6 7 -7 10 -15 7 -18z"/>
<path d="M2643 2086 c-6 -8 -9 -17 -5 -22 4 -4 -1 -4 -10 -1 -21 8 -24 -6 -4
-22 11 -9 15 -7 19 10 3 11 10 18 15 15 6 -3 8 2 5 14 -3 11 -6 20 -7 20 0 -1
-6 -7 -13 -14z"/>
<path d="M5470 2089 c0 -9 9 -58 20 -110 11 -52 20 -108 20 -126 0 -35 15 -52
24 -27 10 27 7 83 -11 152 -16 66 -53 143 -53 111z"/>
<path d="M2718 2055 c-35 -30 -35 -35 1 -35 19 0 35 8 45 22 30 42 -3 51 -46
13z"/>
<path d="M1310 2041 c0 -6 4 -13 10 -16 6 -3 7 1 4 9 -7 18 -14 21 -14 7z"/>
<path d="M2563 2025 c-6 -14 -7 -27 -3 -30 5 -3 11 4 15 15 3 11 14 20 23 20
15 0 15 2 2 10 -21 14 -24 13 -37 -15z"/>
<path d="M2478 1993 c7 -3 16 -2 19 1 4 3 -2 6 -13 5 -11 0 -14 -3 -6 -6z"/>
<path d="M2513 1985 c-8 -9 -9 -16 -3 -20 14 -8 30 3 30 21 0 18 -11 17 -27
-1z"/>
<path d="M2639 1992 c6 -2 8 -8 5 -14 -4 -6 2 -8 17 -3 40 12 41 21 3 21 -21
0 -32 -2 -25 -4z"/>
<path d="M2456 1958 c3 -4 9 -8 15 -8 5 0 9 4 9 8 0 5 -7 9 -15 9 -8 0 -12 -4
-9 -9z"/>
<path d="M2583 1925 c4 -5 -9 -19 -30 -32 -22 -13 -31 -23 -21 -23 9 0 20 5
23 10 3 6 15 10 26 10 21 0 26 25 7 36 -7 4 -9 3 -5 -1z"/>
<path d="M2476 1794 c-5 -14 -4 -15 9 -4 17 14 19 20 6 20 -5 0 -12 -7 -15
-16z"/>
<path d="M633 1703 c-15 -5 -18 -43 -4 -43 5 0 11 11 13 25 3 14 5 25 4 24 0
0 -7 -3 -13 -6z"/>
<path d="M2568 1649 c-10 -5 -18 -14 -18 -19 0 -14 28 -1 34 16 6 16 6 16 -16
3z"/>
<path d="M645 1598 c8 -24 28 -90 45 -148 17 -58 47 -150 65 -205 19 -55 64
-192 100 -305 37 -113 72 -218 79 -235 7 -16 27 -73 44 -125 17 -52 62 -187
100 -300 39 -113 73 -222 77 -243 l7 -37 190 0 c158 0 189 2 179 13 -6 8 -8
17 -4 20 3 4 1 7 -5 7 -7 0 -12 7 -12 15 0 8 -9 23 -19 32 -11 9 -18 20 -15
24 4 8 -12 32 -47 70 -12 12 -14 20 -6 28 8 8 6 11 -7 11 -9 0 -14 5 -11 10 3
6 -1 10 -11 10 -13 0 -14 3 -5 14 10 12 8 17 -8 25 -11 6 -18 17 -15 24 2 7
-3 22 -13 32 -10 11 -20 29 -22 40 -1 11 -8 29 -14 40 -6 11 -10 26 -9 33 2 6
-2 12 -9 12 -6 0 -9 6 -6 14 3 8 1 17 -6 20 -8 3 -6 5 3 5 9 1 5 6 -10 14 -14
8 -24 19 -22 26 1 7 -4 19 -13 27 -8 9 -15 22 -15 30 0 8 -5 14 -11 14 -5 0
-8 4 -4 9 3 5 -2 17 -11 25 -8 9 -12 16 -8 16 4 0 1 8 -7 18 -8 9 -30 51 -49
92 -19 41 -44 83 -55 93 -11 10 -14 15 -6 11 16 -8 18 -14 -42 111 -95 196
-142 286 -160 305 -9 11 -18 31 -19 45 -1 14 -6 25 -11 25 -4 0 -5 5 -2 10 3
6 1 10 -6 10 -7 0 -10 3 -6 6 3 3 -3 15 -13 26 -10 11 -16 27 -13 34 4 10 0
12 -11 8 -12 -5 -16 0 -16 19 0 13 -7 30 -15 37 -8 7 -12 16 -9 21 3 5 -6 13
-20 19 -20 7 -26 17 -26 40 0 16 -5 30 -11 30 -5 0 -8 4 -5 8 2 4 -11 9 -29
10 l-34 3 14 -43z"/>
<path d="M2590 1571 c0 -5 7 -14 15 -21 9 -7 14 -19 11 -26 -3 -7 -1 -16 4
-19 9 -6 5 49 -5 65 -8 12 -25 13 -25 1z"/>
<path d="M1530 1559 c0 -5 5 -7 10 -4 6 3 10 8 10 11 0 2 -4 4 -10 4 -5 0 -10
-5 -10 -11z"/>
<path d="M970 1379 c0 -5 5 -7 10 -4 6 3 10 8 10 11 0 2 -4 4 -10 4 -5 0 -10
-5 -10 -11z"/>
<path d="M900 1345 c0 -8 7 -15 16 -15 14 0 14 3 4 15 -7 8 -14 15 -16 15 -2
0 -4 -7 -4 -15z"/>
<path d="M2705 1350 c3 -5 13 -10 21 -10 8 0 14 5 14 10 0 6 -9 10 -21 10 -11
0 -17 -4 -14 -10z"/>
<path d="M2735 1309 c-4 -11 -4 -23 -1 -26 3 -4 6 1 6 10 0 10 5 17 10 17 6 0
10 5 10 10 0 18 -19 10 -25 -11z"/>
<path d="M960 1304 c0 -8 5 -12 10 -9 6 4 8 11 5 16 -9 14 -15 11 -15 -7z"/>
<path d="M925 1300 c-3 -5 -1 -10 4 -10 6 0 11 5 11 10 0 6 -2 10 -4 10 -3 0
-8 -4 -11 -10z"/>
<path d="M2700 1291 c0 -6 4 -13 10 -16 6 -3 7 1 4 9 -7 18 -14 21 -14 7z"/>
<path d="M1436 1091 c-7 -11 3 -41 14 -41 5 0 11 -8 13 -17 4 -15 5 -15 6 -2
0 9 -5 22 -13 29 -8 6 -12 18 -9 26 6 15 -3 19 -11 5z"/>
<path d="M1677 105 c-4 -8 -3 -16 1 -19 4 -3 9 4 9 15 2 23 -3 25 -10 4z"/>
<path d="M1742 111 c-11 -7 -11 -9 0 -14 9 -3 15 1 15 9 0 8 -1 14 -1 14 -1 0
-7 -4 -14 -9z"/>
<path d="M1636 77 c3 -9 12 -13 19 -11 7 3 16 1 20 -5 3 -6 1 -11 -6 -11 -9 0
-9 -3 0 -14 9 -11 9 -15 -1 -19 -8 -3 -5 -6 7 -7 11 -1 31 -3 45 -4 14 -2 28
2 32 8 5 8 8 7 8 -1 0 -7 9 -13 20 -13 11 0 20 4 20 9 0 5 8 12 18 14 13 4 11
5 -5 6 -13 0 -23 -3 -23 -9 0 -5 -4 -10 -10 -10 -5 0 -10 13 -10 29 0 17 -5
33 -12 37 -8 5 -9 2 -4 -11 5 -15 4 -16 -9 -5 -8 7 -15 10 -15 7 0 -5 -54 6
-83 18 -13 5 -16 3 -11 -8z m121 -43 c-3 -3 -12 -4 -19 -1 -8 3 -5 6 6 6 11 1
17 -2 13 -5z"/>
<path d="M1560 20 c-9 -6 -10 -10 -3 -10 6 0 15 5 18 10 8 12 4 12 -15 0z"/>
<path d="M1610 15 c-14 -8 -20 -14 -14 -15 5 0 19 7 30 15 24 18 16 19 -16 0z"/>
</g>
</svg>
